<?xml version="1.0" encoding="utf-8"?>
<!-- Generator: Adobe Illustrator 18.1.0, SVG Export Plug-In . SVG Version: 6.00 Build 0)  -->
<svg version="1.2" baseProfile="tiny" id="Calque_1"
	 xmlns="http://www.w3.org/2000/svg" xmlns:xlink="http://www.w3.org/1999/xlink" x="0px" y="0px" viewBox="0 0 84.9 132.7"
	 xml:space="preserve">
<g>
	<g>
		<path fill="#925F36" d="M17.5,121.1c0,0.8,1.2,10.8,1.2,10.8h8c0,0,0.2-10.4-0.1-10.7C26.3,120.9,17.5,121.1,17.5,121.1z"/>
		<path fill="#1D1D1B" d="M17.5,121.1c0.1,0.9,0.3,1.8,0.5,2.7c0.2,0.9,0.3,1.8,0.5,2.7c0.3,1.8,0.6,3.6,0.9,5.4l-0.6-0.6
			c2.7-0.1,5.3-0.1,8-0.1l-0.7,0.7l0.1-4.9c0.1-1.6,0.1-3.3,0.1-4.9c0-0.2,0-0.4,0-0.6c0,0,0,0.1,0.1,0.1c0,0,0,0,0,0
			c-0.1-0.1,0.2,0.1,0.1,0.1l0,0l0,0l0,0l-0.1,0c-0.1,0-0.1,0-0.2,0c-0.3,0-0.8-0.1-1.2-0.1l-2.5-0.1
			C20.8,121.3,19.2,121.2,17.5,121.1z M17.5,121.1c1.6-0.2,3.3-0.3,4.9-0.4c0.8,0,1.7-0.1,2.5-0.1c0.4,0,0.8,0,1.3,0
			c0.2,0,0.4,0.1,0.5,0.1l0.1,0l0,0l0,0l0,0c0,0,0.2,0.2,0.1,0.1l0.1,0.1c0.1,0.1,0.2,0.3,0.2,0.4c0,0.2,0.1,0.5,0.1,0.7
			c0.1,1.7,0.1,3.3,0.2,5c0,1.7,0,3.3-0.1,5l0,0.7l-0.7,0c-2.7,0-5.3,0-8-0.1l-0.6,0l0-0.5c-0.2-1.8-0.3-3.6-0.4-5.4
			c-0.1-0.9-0.1-1.8-0.1-2.7C17.6,122.9,17.5,122,17.5,121.1z"/>
	</g>
	<g>
		<path fill="#008D36" d="M10.9,100.7l5.7,20.3c0,0,6.7,0.5,6.8,0s3.4-18.8,3.4-18.8L10.9,100.7z"/>
		<path fill="#1D1D1B" d="M10.9,100.7c0.6,1.7,1.1,3.3,1.7,5c0.5,1.7,1.1,3.3,1.6,5c1,3.4,2.1,6.7,3,10.1l-0.6-0.5
			c1.1,0.1,2.1,0.1,3.2,0.1l1.6,0c0.5,0,1.1,0,1.5-0.1c0,0,0.1,0,0,0c0,0-0.1,0-0.1,0c0,0,0,0-0.2,0.2c0,0.1-0.1,0.2-0.1,0.3l0,0
			l0,0l0.1-0.4l0.1-0.8L23,118l0.6-3.2c0.8-4.2,1.6-8.5,2.4-12.7l0.5,0.7c-2.6-0.3-5.2-0.6-7.9-1C16.1,101.5,13.5,101.1,10.9,100.7z
			 M10.9,100.7c2.6,0.1,5.3,0.3,7.9,0.4c2.6,0.2,5.3,0.3,7.9,0.5l0.6,0l-0.1,0.6c-0.7,4.3-1.4,8.5-2.1,12.8l-0.6,3.2l-0.3,1.6
			l-0.1,0.8L24,121l0,0c0,0,0,0,0,0c0,0.1,0,0.2-0.1,0.3c-0.2,0.2-0.2,0.2-0.3,0.3c-0.1,0-0.2,0.1-0.2,0.1c-0.2,0.1-0.3,0.1-0.3,0.1
			c-0.7,0.1-1.2,0.1-1.7,0.1l-1.6,0c-1.1-0.1-2.2-0.1-3.3-0.2l-0.5,0l-0.1-0.5c-0.9-3.4-1.8-6.8-2.6-10.2c-0.4-1.7-0.8-3.4-1.2-5.1
			C11.6,104.2,11.2,102.4,10.9,100.7z"/>
	</g>
	<g>
		<path fill="#925F36" d="M12.4,117.5c0,0.5,1.4,5.5,1.4,5.5l14.2,0.8c0,0-0.8-5.2-1.4-5.4C26.1,118.2,12.4,117.5,12.4,117.5z"/>
		<path fill="#1D1D1B" d="M12.4,117.5c0.1,0.5,0.3,0.9,0.4,1.4l0.4,1.4l0.9,2.7l-0.4-0.3c2.4,0,4.7,0,7.1,0.1
			c2.4,0.1,4.7,0.2,7.1,0.3l-0.8,0.9c-0.1-0.8-0.3-1.6-0.4-2.4c-0.2-0.8-0.3-1.6-0.6-2.3c0-0.1-0.1-0.2-0.1-0.2c0,0,0,0,0,0
			c0,0,0,0,0.1,0.1c0,0,0.1,0.1,0.2,0.1l0,0c0.1,0,0,0,0,0l0,0l0,0l-0.1,0l-0.1,0l-0.3,0l-1.2-0.1l-2.5-0.2
			c-1.6-0.2-3.3-0.3-4.9-0.5C15.7,117.9,14,117.7,12.4,117.5z M12.4,117.5c1.7-0.1,3.3-0.1,5-0.1c1.7,0,3.3,0,5,0.1
			c0.8,0,1.7,0,2.5,0.1l1.3,0.1l0.4,0l0.2,0l0.1,0l0,0l0,0l0.1,0l0,0c0.2,0.1,0.4,0.3,0.5,0.3l0.1,0.2c0.1,0.1,0.1,0.2,0.2,0.4
			c0.3,0.9,0.5,1.7,0.7,2.5c0.2,0.8,0.3,1.6,0.5,2.5l0.2,0.9l-0.9-0.1c-2.4-0.1-4.7-0.3-7.1-0.5c-2.4-0.2-4.7-0.4-7.1-0.6l-0.3,0
			l-0.1-0.3c-0.2-0.9-0.4-1.9-0.6-2.8l-0.3-1.4C12.5,118.4,12.4,117.9,12.4,117.5z"/>
	</g>
	<g>
		<path fill="#925F36" d="M9.2,131.9h16.5c0,0,0.6-6-3.1-9.5s-10.8-1.4-12.3,1.4C8.7,126.5,9.2,131.9,9.2,131.9z"/>
		<path fill="#1D1D1B" d="M9.2,131.9c1.4-0.1,2.7-0.2,4.1-0.3c1.4-0.1,2.7-0.1,4.1-0.2c2.7-0.1,5.5-0.2,8.2-0.2l-0.7,0.6
			c0-0.6,0-1.3-0.1-1.9c-0.1-0.6-0.1-1.3-0.3-1.9c-0.1-0.6-0.3-1.2-0.5-1.8c-0.2-0.6-0.5-1.2-0.8-1.7c-0.3-0.5-0.7-1-1.1-1.5
			l-0.1-0.1l-0.2-0.2l-0.4-0.3c-0.3-0.2-0.5-0.3-0.7-0.5c-0.3-0.1-0.6-0.2-0.8-0.4c-0.3-0.1-0.6-0.2-0.9-0.2
			c-0.6-0.1-1.2-0.2-1.9-0.2c-0.6,0-1.3,0.1-1.9,0.2c-0.6,0.1-1.2,0.3-1.8,0.5c-0.6,0.2-1.2,0.5-1.7,0.9c-0.5,0.4-0.9,0.8-1.2,1.3
			c-0.2,0.3-0.3,0.6-0.4,0.9c-0.1,0.3-0.2,0.6-0.3,0.9c-0.2,0.6-0.3,1.3-0.4,1.9C9.3,129.2,9.2,130.6,9.2,131.9z M9.2,131.9
			c-0.2-1.3-0.3-2.7-0.2-4.1c0-0.7,0.1-1.4,0.2-2.1c0-0.3,0.1-0.7,0.2-1c0.1-0.4,0.2-0.7,0.4-1c0.3-0.7,0.8-1.3,1.4-1.7
			c0.6-0.5,1.2-0.8,1.8-1.1c0.6-0.3,1.3-0.6,2-0.7c0.7-0.2,1.4-0.3,2.1-0.3c0.7,0,1.4,0,2.2,0.1c0.4,0.1,0.7,0.2,1.1,0.3
			c0.3,0.1,0.7,0.3,1,0.4c0.3,0.2,0.7,0.4,1,0.6l0.4,0.3l0.2,0.2c0.2,0.1,0.2,0.2,0.2,0.2c0.5,0.5,1,1.1,1.4,1.7
			c0.4,0.6,0.7,1.3,0.9,1.9c0.3,0.7,0.4,1.4,0.6,2.1c0.1,0.7,0.2,1.4,0.3,2.1c0,0.7,0,1.4,0,2.1l-0.1,0.6l-0.6,0
			c-2.7,0-5.5-0.1-8.2-0.2c-1.4,0-2.7-0.1-4.1-0.2C11.9,132.1,10.5,132,9.2,131.9z"/>
	</g>
	<g>
		<path fill="#925F36" d="M48,121.1c0,0.8-1.2,10.8-1.2,10.8h-8c0,0-0.2-10.4,0.1-10.7C39.3,120.9,48,121.1,48,121.1z"/>
		<path fill="#1D1D1B" d="M48,121.1c0,0.9,0,1.8,0,2.7c0,0.9-0.1,1.8-0.1,2.7c-0.1,1.8-0.3,3.6-0.4,5.4l0,0.5l-0.6,0
			c-2.7,0.1-5.3,0.1-8,0.1l-0.7,0l0-0.7c0-1.7,0-3.3-0.1-5c0-1.7,0-3.3,0.2-5c0-0.2,0-0.4,0.1-0.7c0-0.1,0.1-0.3,0.2-0.4l0.1-0.1
			c-0.1,0.1,0.2-0.1,0.1-0.1l0,0l0,0l0,0l0.1,0c0.1,0,0.3-0.1,0.5-0.1c0.5,0,0.9,0,1.3,0c0.8,0,1.7,0.1,2.5,0.1
			C44.7,120.8,46.4,120.9,48,121.1z M48,121.1c-1.7,0.1-3.3,0.2-4.9,0.3l-2.5,0.1c-0.4,0-0.8,0.1-1.2,0.1c-0.1,0-0.1,0-0.2,0l-0.1,0
			l0,0l0,0l0,0c0,0,0.2-0.2,0.1-0.1c0,0,0,0,0,0c0.1,0,0.1-0.2,0.1-0.1c0,0.2,0,0.3,0,0.6c0,1.6,0,3.3,0.1,4.9l0.1,4.9l-0.7-0.7
			c2.7,0,5.3,0,8,0.1l-0.6,0.6c0.3-1.8,0.6-3.6,0.9-5.4c0.1-0.9,0.3-1.8,0.5-2.7C47.7,122.9,47.9,122,48,121.1z"/>
	</g>
	<g>
		<path fill="#008D36" d="M54.7,100.7L49.1,121c0,0-6.7,0.5-6.8,0s-3.4-18.8-3.4-18.8L54.7,100.7z"/>
		<path fill="#1D1D1B" d="M54.7,100.7c-0.4,1.7-0.8,3.4-1.2,5.1c-0.4,1.7-0.8,3.4-1.2,5.1c-0.8,3.4-1.7,6.8-2.6,10.2l-0.1,0.5
			l-0.5,0c-1.1,0.1-2.2,0.2-3.3,0.2l-1.6,0c-0.6,0-1.1,0-1.7-0.1c-0.1,0-0.2,0-0.3-0.1c0,0-0.1-0.1-0.2-0.1c-0.1-0.1-0.1,0-0.3-0.3
			c-0.1-0.1-0.1-0.2-0.1-0.3c0,0,0,0,0,0l0,0l-0.1-0.4l-0.1-0.8l-0.3-1.6l-0.6-3.2c-0.7-4.2-1.5-8.5-2.1-12.8l-0.1-0.6l0.6,0
			c2.6-0.2,5.3-0.4,7.9-0.5C49.4,101,52.1,100.8,54.7,100.7z M54.7,100.7c-2.6,0.4-5.2,0.7-7.8,1.1c-2.6,0.3-5.2,0.7-7.9,1l0.5-0.7
			c0.8,4.2,1.7,8.5,2.4,12.7l0.6,3.2l0.3,1.6l0.1,0.8l0.1,0.4l0,0l0,0c0-0.1,0-0.2-0.1-0.3c-0.1-0.2-0.2-0.2-0.2-0.2
			c0,0-0.1-0.1-0.1,0c0,0,0,0,0,0c0.4,0.1,1,0.1,1.5,0.1l1.6,0c1.1,0,2.1-0.1,3.2-0.1l-0.6,0.5c1-3.4,2-6.7,3-10.1
			c0.5-1.7,1.1-3.3,1.6-5C53.6,104.1,54.1,102.4,54.7,100.7z"/>
	</g>
	<g>
		<path fill="#925F36" d="M53.2,117.5c0,0.5-1.4,5.5-1.4,5.5l-14.2,0.8c0,0,0.8-5.2,1.4-5.4C39.5,118.2,53.2,117.5,53.2,117.5z"/>
		<path fill="#1D1D1B" d="M53.2,117.5c0,0.5-0.1,1-0.2,1.4l-0.3,1.4c-0.2,0.9-0.4,1.9-0.6,2.8l-0.1,0.3l-0.3,0
			c-2.4,0.2-4.7,0.5-7.1,0.6c-2.4,0.2-4.7,0.3-7.1,0.5l-0.9,0.1l0.2-0.9c0.1-0.8,0.3-1.6,0.5-2.5c0.2-0.8,0.3-1.6,0.7-2.5
			c0.1-0.1,0.1-0.2,0.2-0.4l0.1-0.2c0-0.1,0.3-0.3,0.5-0.3l0,0l0.1,0l0,0l0,0l0.1,0l0.2,0l0.4,0l1.3-0.1c0.8,0,1.7-0.1,2.5-0.1
			c1.7-0.1,3.3-0.1,5-0.1C49.9,117.4,51.5,117.4,53.2,117.5z M53.2,117.5c-1.6,0.3-3.3,0.4-4.9,0.7c-1.6,0.2-3.3,0.4-4.9,0.5
			l-2.5,0.2l-1.2,0.1l-0.3,0l-0.1,0l-0.1,0l0,0l0,0c0,0-0.1,0,0,0l0,0c0.1,0,0.1,0,0.2-0.1c0,0,0.1-0.1,0.1-0.1c0,0,0,0,0,0
			c0,0-0.1,0.1-0.1,0.2c-0.2,0.7-0.4,1.5-0.6,2.3c-0.2,0.8-0.3,1.6-0.4,2.4l-0.8-0.9c2.4-0.1,4.7-0.2,7.1-0.3
			c2.4-0.1,4.7-0.1,7.1-0.1l-0.4,0.3l0.9-2.7l0.4-1.4C52.9,118.4,53.1,117.9,53.2,117.5z"/>
	</g>
	<g>
		<path fill="#925F36" d="M56.4,131.9H39.9c0,0-0.6-6,3.1-9.5s10.8-1.4,12.3,1.4C56.9,126.5,56.4,131.9,56.4,131.9z"/>
		<path fill="#1D1D1B" d="M56.4,131.9c-1.4,0.1-2.7,0.2-4.1,0.3c-1.4,0.1-2.7,0.1-4.1,0.2c-2.7,0.1-5.5,0.2-8.2,0.2l-0.6,0l-0.1-0.6
			c-0.1-0.7-0.1-1.4,0-2.1c0-0.7,0.1-1.4,0.3-2.1c0.1-0.7,0.3-1.4,0.6-2.1c0.3-0.7,0.5-1.3,0.9-1.9c0.4-0.6,0.8-1.2,1.4-1.7
			c0.1-0.1,0.1-0.1,0.2-0.2l0.2-0.2l0.4-0.3c0.3-0.2,0.7-0.4,1-0.6c0.3-0.2,0.7-0.3,1-0.4c0.4-0.1,0.7-0.2,1.1-0.3
			c0.7-0.1,1.5-0.2,2.2-0.1c0.7,0,1.4,0.1,2.1,0.3c0.7,0.2,1.4,0.4,2,0.7c0.6,0.3,1.3,0.7,1.8,1.1c0.6,0.4,1.1,1.1,1.4,1.7
			c0.1,0.3,0.3,0.7,0.4,1c0.1,0.3,0.2,0.7,0.2,1c0.1,0.7,0.2,1.4,0.2,2.1C56.7,129.2,56.6,130.6,56.4,131.9z M56.4,131.9
			c0-1.4-0.1-2.7-0.3-4c-0.1-0.7-0.2-1.3-0.4-1.9c-0.1-0.3-0.2-0.6-0.3-0.9c-0.1-0.3-0.2-0.6-0.4-0.9c-0.3-0.5-0.7-0.9-1.2-1.3
			c-0.5-0.4-1.1-0.7-1.7-0.9c-0.6-0.2-1.2-0.4-1.8-0.5c-0.6-0.1-1.3-0.2-1.9-0.2c-0.6,0-1.3,0.1-1.9,0.2c-0.3,0.1-0.6,0.2-0.9,0.2
			c-0.3,0.1-0.6,0.2-0.8,0.4c-0.2,0.2-0.5,0.3-0.7,0.5l-0.4,0.3l-0.2,0.2l-0.1,0.1c-0.4,0.4-0.8,0.9-1.1,1.5
			c-0.3,0.5-0.6,1.1-0.8,1.7c-0.2,0.6-0.4,1.2-0.5,1.8c-0.1,0.6-0.2,1.3-0.3,1.9c-0.1,0.6-0.1,1.3-0.1,1.9l-0.7-0.6
			c2.7,0,5.5,0.1,8.2,0.2c1.4,0,2.7,0.1,4.1,0.2C53.7,131.7,55,131.8,56.4,131.9z"/>
	</g>
	<g>
		<path fill="#008D36" d="M38.6,102.2h-14c-10.6,0-19.1-8.6-19.1-19.1v-6.8c0-10.6,8.6-19.1,19.1-19.1h14c10.6,0,19.1,8.6,19.1,19.1
			v6.8C57.7,93.6,49.2,102.2,38.6,102.2z"/>
		<path fill="#1D1D1B" d="M38.6,102.2c0,0-2.5,0-7,0c-2.2,0-4.9,0.1-8,0c-1.5,0-3.2-0.4-4.9-0.8c-1.7-0.5-3.3-1.3-4.9-2.3
			c-3.2-2.1-6.1-5.4-7.6-9.5c-0.8-2.1-1.2-4.3-1.2-6.7c0-2.3-0.1-4.6-0.1-7c0-0.6,0-1.2,0.1-1.8c0.1-0.6,0.2-1.2,0.3-1.9
			c0.1-0.6,0.3-1.2,0.4-1.8c0.2-0.6,0.4-1.2,0.6-1.8c0.9-2.3,2.4-4.5,4.2-6.3c3.6-3.7,8.8-5.9,14.1-5.9c2.5,0,5.1,0,7.6,0
			c1.3,0,2.5,0,3.8,0l1.9,0c0.3,0,0.6,0,1,0l0.9,0.1c2.5,0.2,5.1,0.8,7.4,1.9c2.3,1.1,4.3,2.6,5.9,4.5c3.3,3.6,5,8.3,5.1,12.7
			c0,2.2,0,4.3-0.1,6.3c0,1-0.1,2-0.1,3c-0.2,1-0.3,2-0.6,2.9c-0.2,0.9-0.6,1.8-0.9,2.7c-0.4,0.8-0.7,1.7-1.2,2.4
			c-0.9,1.5-2,2.8-3,3.9c-2.2,2.2-4.6,3.5-6.7,4.3c-1,0.4-2,0.6-2.8,0.8c-0.8,0.1-1.6,0.3-2.2,0.3C39.2,102.2,38.6,102.2,38.6,102.2
			z M38.6,102.2c0,0,0.6,0,1.8-0.1c0.6-0.1,1.3-0.2,2.2-0.3c0.8-0.2,1.8-0.4,2.8-0.9c2.1-0.8,4.4-2.1,6.6-4.3c1-1.1,2.1-2.4,3-3.9
			c0.2-0.4,0.4-0.7,0.6-1.1c0.2-0.4,0.4-0.8,0.6-1.2c0.3-0.9,0.6-1.7,0.8-2.6c0.3-0.9,0.3-1.9,0.5-2.8c0-1,0.1-2,0.1-3
			c0-2,0-4.2-0.1-6.3c-0.1-4.3-2-8.7-5.1-12c-3.2-3.3-7.8-5.5-12.5-5.8l-0.9,0c-0.2,0-0.6,0-0.9,0l-1.9,0c-1.3,0-2.5,0-3.8,0
			c-2.5,0-5,0-7.6,0c-4.9,0-9.7,2-13.1,5.4c-3.4,3.4-5.4,8-5.5,12.7c-0.1,2.3-0.1,4.7-0.1,7c0,2.2,0.3,4.4,1,6.4
			c1.3,4.1,4.1,7.3,7.1,9.5c1.6,1.1,3.2,1.8,4.8,2.4c1.7,0.5,3.2,0.8,4.8,0.9c3.1,0.1,5.8,0.1,8,0.1
			C36.1,102.2,38.6,102.2,38.6,102.2z"/>
	</g>
	<g>
		<polygon fill="#422918" points="4.9,93.8 4.3,97.5 5.5,102.1 10.4,103.2 15.6,103.4 19.7,107.5 25.5,106.6 26.1,111.2 28.1,115.5 
			33.1,115.3 36.8,113.6 40.6,108.2 44.3,105.5 49.6,105 53.8,101.5 59.9,102.1 60.4,97.6 61.1,93.5 56,92.5 51.3,93.6 46.5,93.2 
			41.8,92.2 37,92 32.2,92.3 27.5,91.6 22.7,92.1 17.9,94.5 13.2,92.5 8.3,91.6 		"/>
		<path fill="#1D1D1B" d="M4.9,93.8l-0.5,3.7l0,0l1.3,4.6l-0.1-0.1l4.9,1l0,0l5.2,0.1l0.1,0l0.1,0.1l4.2,4.1l-0.4-0.1l5.8-1l0.5-0.1
			l0.1,0.5l0.7,4.6l0-0.1l2,4.3l-0.6-0.4l5-0.2l-0.2,0.1l3.7-1.7l-0.3,0.2l3.8-5.4l0.1-0.1l0.1-0.1l3.7-2.8l0.2-0.1l0.2,0l5.2-0.5
			l-0.4,0.2l4.2-3.5l0.2-0.2l0.3,0l6.1,0.6l-0.8,0.6l0.5-4.3l0-0.1l0-0.2l0-0.3l0.1-0.5l0.2-1.1l0.4-2.1l0.6,0.8l-5.1-1l0.3,0
			l-4.8,1.1l-0.1,0l-0.1,0l-4.8-0.4l0,0l0,0l-4.7-1l0.1,0L37,92.5l0.1,0l-4.8,0.2l-0.1,0l0,0l-4.7-0.7l0.1,0l-4.8,0.4l0.1,0L18,94.8
			l-0.1,0.1l-0.1-0.1l-4.7-2.1l0,0l-4.9-1l0.1,0L4.9,93.8z M4.9,93.8l3.3-2.3l0,0l0,0l4.9,0.8l0,0l0,0l4.8,1.9l-0.2,0l4.8-2.5l0.1,0
			l0.1,0l4.8-0.5l0,0l0.1,0l4.8,0.6l-0.1,0l4.8-0.3l0,0l0,0l4.8,0.2l0,0l0.1,0l4.8,1l-0.1,0l4.8,0.4l-0.2,0l4.8-1.1l0.1,0l0.1,0
			l5.1,0.9l0.7,0.1l-0.1,0.7l-0.3,2.1l-0.2,1.1l-0.1,0.5l0,0.3c0,0,0,0.1,0,0.1l0,0.1l-0.5,4.3l-0.1,0.7l-0.7-0.1l-6.1-0.6l0.5-0.2
			l-4.3,3.5l-0.2,0.1l-0.2,0l-5.2,0.4l0.4-0.1l-3.7,2.7l0.2-0.2l-3.9,5.4l-0.1,0.1l-0.2,0.1l-3.7,1.7l-0.1,0.1l-0.1,0l-5,0.2l-0.4,0
			l-0.2-0.4l-1.9-4.4l0-0.1l0-0.1l-0.6-4.6l0.6,0.4l-5.8,0.8l-0.2,0l-0.2-0.2l-4.1-4.1l0.2,0.1l-5.1-0.3l0,0l0,0l-4.8-1.1l-0.1,0
			l0-0.1l-1.1-4.6l0,0l0,0L4.9,93.8z"/>
	</g>
	<g>
		<polygon fill="#683B11" points="5.1,92.2 5.5,95.2 10.5,95.4 15.4,95.7 20.4,95.1 24.6,98.5 29.3,99 33.2,100.7 38,101.3 
			40.2,98.2 44.5,95.8 49.6,97.2 54.3,94.9 59.6,95.3 60,92.5 56.2,90.3 51.4,91 46.6,91 41.9,90.3 37.1,91.4 32.4,91.1 27.6,90.1 
			22.8,89.9 18.1,90.3 13.3,89.7 8.4,90.2 		"/>
		<path fill="#1D1D1B" d="M5.1,92.2l0.5,3l-0.1-0.1l5,0.1l5,0.2l-0.1,0l5-0.7l0.2,0l0.1,0.1l4.3,3.3L24.6,98l4.8,0.4l0.1,0l0.1,0
			l3.9,1.7l-0.2,0l4.8,0.6l-0.6,0.3l2.2-3.1l0.1-0.1l0.1-0.1l4.3-2.4l0.2-0.1l0.3,0.1l5.1,1.4l-0.5,0l4.7-2.3l0.2-0.1l0.2,0l5.3,0.4
			l-0.8,0.6l0.4-2.7l0.4,0.7l-3.8-2.2l0.5,0.1l-4.8,0.7l-0.1,0l0,0l-4.8,0l-0.1,0l0,0l-4.8-0.8l0.3,0L37.3,92l-0.1,0l-0.1,0
			l-4.8-0.4l0,0l0,0l-4.7-1l0.1,0l-4.8-0.3l0,0l-4.8,0.3l0,0l0,0l-4.7-0.7l0.1,0l-4.9,0.4l0,0L5.1,92.2z M5.1,92.2l3.3-2.1l0,0l0,0
			l4.9-0.6l0,0l0,0l4.8,0.5l-0.1,0l4.8-0.4l0,0l0,0l4.8,0.1l0,0l0,0l4.8,0.9l-0.1,0l4.8,0.3l-0.2,0l4.8-1.2l0.1,0l0.1,0l4.8,0.7
			l-0.1,0l4.8,0l-0.1,0l4.8-0.7l0.2,0l0.2,0.1l3.8,2.2l0.4,0.2l-0.1,0.5l-0.4,2.7l-0.1,0.7L59.5,96l-5.3-0.4l0.4-0.1L50,97.8
			l-0.2,0.1l-0.3-0.1l-5.1-1.4l0.5-0.1l-4.3,2.4l0.2-0.2l-2.2,3.1l-0.2,0.3l-0.4-0.1l-4.8-0.7l-0.1,0l-0.1,0l-3.9-1.8l0.2,0L24.5,99
			l-0.1,0l-0.1-0.1l-4.2-3.4l0.3,0.1l-5,0.5l0,0l0,0l-4.9-0.4l-4.9-0.3l-0.1,0l0-0.1L5.1,92.2z"/>
	</g>
	<g>
		<path fill="#008D36" d="M26.1,88.4l-4,2.4c-1.9,1.1-4.4,0.6-5.5-1.3c0,0-5.4-5.1-9.5-12S1.2,63.6,1.2,63.6
			c-1.1-1.8-0.4-4.3,1.5-5.4l4-2.4c1.9-1.1,4.4-0.6,5.5,1.3c0,0,5.9,4.4,9.3,10.2s6,15.7,6,15.7C28.7,84.9,28,87.3,26.1,88.4z"/>
		<path fill="#1D1D1B" d="M26.1,88.4l-2.3,1.4l-1.2,0.7c-0.4,0.2-0.8,0.5-1.2,0.6c-0.9,0.3-1.8,0.4-2.7,0.1
			c-0.9-0.3-1.7-0.9-2.2-1.7l0,0c-3.7-3.5-7-7.4-9.8-11.8c-1.3-2.2-2.5-4.5-3.6-6.8c-0.5-1.2-1-2.4-1.4-3.6
			c-0.4-1.2-0.8-2.4-1.2-3.7l0.1,0.2c-0.9-1.5-0.8-3.4,0.1-4.8c0.2-0.4,0.5-0.7,0.8-1c0.3-0.3,0.7-0.5,1-0.7l1.9-1.1l1.9-1.1
			l0.3-0.1L6.8,55c0.2-0.1,0.4-0.2,0.6-0.2c0.4-0.1,0.8-0.2,1.2-0.2c1.7-0.1,3.4,0.7,4.3,2.2l-0.2-0.2c1,0.8,2,1.7,2.9,2.6
			c0.9,0.9,1.8,1.9,2.7,2.8c0.4,0.5,0.8,1,1.2,1.5c0.4,0.5,0.8,1,1.1,1.6c0.4,0.5,0.7,1.1,1,1.7c0.3,0.6,0.6,1.1,0.9,1.7
			c1.1,2.3,2,4.7,2.9,7.2c0.8,2.4,1.5,4.9,2.2,7.4l0,0c0.3,0.5,0.4,1,0.5,1.5c0.1,0.5,0,1.1-0.1,1.6C27.7,87.1,27,87.9,26.1,88.4z
			 M26.1,88.4C27,87.9,27.7,87,28,86c0.1-0.5,0.2-1,0.1-1.5c-0.1-0.5-0.2-1-0.5-1.5l0,0l0,0c-0.7-2.5-1.5-4.9-2.4-7.3
			c-0.9-2.4-1.9-4.8-3.1-7c-0.3-0.5-0.6-1.1-1-1.6c-0.3-0.5-0.7-1-1.1-1.6c-0.4-0.5-0.8-1-1.2-1.5c-0.4-0.5-0.8-1-1.3-1.4
			c-0.9-0.9-1.8-1.8-2.7-2.7c-0.9-0.8-1.9-1.7-2.9-2.4l-0.1-0.1l-0.1-0.1c-0.6-1-1.8-1.6-3-1.5c-0.3,0-0.6,0.1-0.9,0.2
			c-0.1,0.1-0.2,0.1-0.4,0.2l-0.2,0.1l-0.1,0L7,56.5l-1.8,1.1l-1.8,1.1C3,58.9,2.8,59,2.6,59.2c-0.2,0.2-0.4,0.4-0.6,0.7
			c-0.7,1-0.7,2.3-0.1,3.3l0.1,0.1l0,0.1C2.2,64.6,2.6,65.8,3,67c0.4,1.2,0.8,2.4,1.3,3.6c0.9,2.4,2,4.6,3.2,6.8
			c1.2,2.2,2.6,4.3,4.2,6.3c1.5,2,3.2,4,5,5.8l0,0l0,0c0.4,0.8,1.2,1.4,2,1.7c0.9,0.3,1.8,0.3,2.7,0c0.4-0.1,0.8-0.4,1.2-0.6
			l1.2-0.7L26.1,88.4z"/>
	</g>
	<g>
		<path fill="#008D36" d="M42.2,59h-23c-4.6,0-8.3-3.7-8.3-8.3V33.3c0-4.6,3.7-8.3,8.3-8.3l23-3.3c4.6,0,8.3,3.7,8.3,8.3v20.7
			C50.5,55.3,46.8,59,42.2,59z"/>
		<path fill="#1D1D1B" d="M42.2,59l-8.3,0l-8.3,0.1l-4.2,0.1c-1.4,0-2.8,0.2-4.2-0.2c-1.4-0.3-2.7-1-3.8-1.9
			c-1.1-0.9-1.9-2.2-2.4-3.5c-0.3-0.7-0.4-1.4-0.5-2.1c-0.1-0.7-0.1-1.4-0.1-2.1l-0.1-4.2l-0.1-8.3c0-1.4-0.1-2.7,0-4.2
			c0.1-1.5,0.6-3,1.4-4.3c0.8-1.3,1.9-2.3,3.2-3.1c1.3-0.7,2.8-1.1,4.3-1.1l-0.1,0l11.5-1.6l11.5-1.5l0,0l0,0c2.1,0,4.1,0.8,5.7,2.2
			c1.6,1.4,2.6,3.3,2.9,5.3c0.2,1,0.1,2,0.1,3l0,2.9l-0.1,5.8l-0.1,5.8l0,2.9c0,1,0,2-0.1,2.9c-0.3,1.9-1.3,3.7-2.9,5
			C46.1,58.3,44.1,59,42.2,59z M42.2,59c2,0,3.9-0.7,5.4-2c1.5-1.3,2.5-3.1,2.8-5c0.2-1,0.1-1.9,0.1-2.9l0-2.9l-0.1-5.8l-0.1-5.8
			l0-2.9c0-1,0-2-0.2-2.9c-0.3-1.8-1.3-3.5-2.7-4.7c-1.4-1.2-3.2-1.8-5.1-1.8l0.1,0L30.8,24l-11.5,1.7l0,0l-0.1,0
			c-1.3,0-2.5,0.3-3.6,0.9c-1.1,0.6-2.1,1.5-2.8,2.6c-0.7,1.1-1.1,2.3-1.2,3.6c-0.1,1.3,0,2.8-0.1,4.1l-0.1,8.3l-0.1,4.2
			c0,1.4-0.1,2.7,0.4,4c0.4,1.3,1.2,2.4,2.1,3.3c1,0.9,2.2,1.6,3.5,1.9c1.3,0.4,2.7,0.2,4.1,0.3l4.2,0.1l8.3,0.1L42.2,59z"/>
	</g>
	<g>
		<path fill="#008D36" d="M39.9,62.7c0,0-6.7-1.6-10.3-1.6s-11.2,1.6-11.2,1.6c-4.8,0-8.6-3.9-8.6-8.6v-9h42.5l-2.9,9.1
			C47.9,58.8,44.6,62.7,39.9,62.7z"/>
		<path fill="#1D1D1B" d="M39.9,62.7c-1.8-0.4-3.6-0.8-5.4-1.1c-0.9-0.1-1.8-0.3-2.7-0.4c-0.9-0.1-1.8-0.1-2.7-0.1
			c-1.8,0.1-3.6,0.4-5.4,0.7c-1.8,0.3-3.6,0.7-5.3,1.1l0,0l0,0c-0.5,0-1,0-1.5-0.1c-0.5-0.1-1-0.2-1.4-0.3c-0.5-0.1-0.9-0.3-1.4-0.6
			c-0.4-0.2-0.9-0.5-1.2-0.8c-1.6-1.2-2.8-2.9-3.3-4.8c-0.2-0.5-0.2-1-0.3-1.5c0-0.5-0.1-1-0.1-1.5L9,50.6L9,45l0-0.7l0.7,0
			c3.5-0.1,7.1,0,10.6-0.1c3.5,0,7.1,0,10.6,0.1c3.5,0,7.1,0.1,10.6,0.2l10.6,0.2l0.4,0l-0.1,0.4l-1.9,5.5l-0.9,2.8l-0.5,1.4
			c-0.2,0.5-0.3,0.9-0.5,1.4c-0.8,1.8-1.9,3.4-3.4,4.7c-0.4,0.3-0.8,0.6-1.2,0.8c-0.4,0.2-0.9,0.5-1.3,0.6c-0.2,0.1-0.5,0.2-0.7,0.2
			c-0.2,0.1-0.5,0.1-0.7,0.2C40.9,62.6,40.4,62.6,39.9,62.7z M39.9,62.7c0.5,0,1,0,1.4-0.1c0.2,0,0.5-0.1,0.7-0.2
			c0.2-0.1,0.5-0.1,0.7-0.2c0.5-0.2,0.9-0.4,1.3-0.6c0.4-0.2,0.8-0.5,1.2-0.8c0.4-0.3,0.7-0.6,1-1c0.3-0.4,0.6-0.7,0.9-1.1
			c0.5-0.8,1-1.6,1.4-2.5c0.2-0.4,0.4-0.9,0.5-1.4l0.4-1.4l0.8-2.8l1.6-5.6l0.3,0.4l-10.6,0.2c-3.5,0.1-7.1,0.1-10.6,0.2
			c-3.5,0.1-7.1,0-10.6,0.1c-3.5,0-7.1,0-10.6-0.1l0.7-0.7l-0.1,5.7l-0.1,2.8c0,0.5,0,0.9,0,1.4c0.1,0.4,0.1,0.9,0.2,1.3
			c0.4,1.7,1.4,3.3,2.8,4.4c0.3,0.3,0.7,0.5,1.1,0.8c0.4,0.2,0.8,0.4,1.2,0.6c0.4,0.1,0.9,0.3,1.3,0.4c0.4,0.1,0.9,0.1,1.4,0.2
			l-0.1,0c1.8-0.3,3.6-0.6,5.4-0.9c1.8-0.2,3.6-0.5,5.4-0.5c0.9,0,1.8,0.1,2.7,0.2c0.9,0.1,1.8,0.2,2.7,0.4
			C36.3,61.9,38.1,62.2,39.9,62.7z"/>
	</g>
	<g>
		<polyline fill="#008D36" points="14.7,29.6 30.7,33 47.1,29.6 		"/>
		<path fill="#1D1D1B" d="M14.7,29.6c2.7,0.3,5.4,0.7,8.1,1.1c1.3,0.2,2.7,0.5,4,0.7c1.3,0.3,2.7,0.5,4,0.8l-0.3,0
			c2.7-0.6,5.5-1.1,8.3-1.5c2.8-0.5,5.5-0.9,8.3-1.1c-2.7,0.9-5.4,1.6-8.1,2.3c-2.7,0.7-5.4,1.3-8.2,1.8l-0.2,0l-0.1,0
			c-1.3-0.3-2.7-0.6-4-0.9c-1.3-0.3-2.7-0.6-4-1C19.9,31.2,17.3,30.5,14.7,29.6z"/>
	</g>
	<g>
		<path fill="#CABA9F" d="M14.9,45c0,0,1-4.8,1.6-4.8c0.6,0,1.6,4.8,1.6,4.8H14.9z"/>
		<path fill="#1D1D1B" d="M14.9,45c-0.1-0.9,0-1.8,0.1-2.6c0.1-0.4,0.2-0.9,0.3-1.3c0.1-0.2,0.1-0.4,0.2-0.7c0-0.1,0.1-0.2,0.2-0.4
			c0.1-0.1,0.1-0.1,0.2-0.2c0.1-0.1,0.2-0.2,0.6-0.3l0,0l0,0l0.2,0l0,0l0,0c0,0,0,0,0.1,0c0.1,0,0.3,0.2,0.3,0.2
			c0.1,0.1,0.2,0.2,0.2,0.2c0.1,0.1,0.2,0.3,0.2,0.4c0.1,0.2,0.2,0.5,0.3,0.7c0.2,0.4,0.3,0.9,0.4,1.3c0.2,0.9,0.4,1.7,0.4,2.6
			l0.1,0.7l-0.6-0.1C17,45.4,16,45.3,14.9,45z M14.9,45c1.1-0.3,2.2-0.5,3.2-0.6l-0.6,0.7c-0.3-0.8-0.5-1.6-0.7-2.4l-0.4-1.2
			c-0.1-0.2-0.1-0.4-0.2-0.5c0-0.1-0.1-0.2-0.1-0.2c0,0,0,0,0,0c0,0,0.1,0.1,0.2,0.1c0.1,0,0,0,0,0l0,0l0,0c0.1,0-0.2,0,0.2,0l0,0h0
			c0.3,0,0.3-0.1,0.3-0.1c0,0,0,0,0,0c0,0-0.1,0.1-0.1,0.2c-0.1,0.2-0.2,0.3-0.3,0.5c-0.2,0.4-0.3,0.8-0.5,1.2
			C15.7,43.4,15.3,44.2,14.9,45z"/>
	</g>
	<g>
		<path fill="#CABA9F" d="M47.8,45c0,0,1.3-6.1,2.1-6.1s2,6.1,2,6.1H47.8z"/>
		<path fill="#1D1D1B" d="M47.8,45c0-1.1,0.1-2.2,0.3-3.3c0.1-0.5,0.2-1.1,0.4-1.6c0.1-0.3,0.2-0.5,0.3-0.8c0.1-0.1,0.1-0.3,0.2-0.5
			c0.1-0.1,0.1-0.2,0.2-0.3c0,0,0.1-0.1,0.2-0.2c0.1-0.1,0.2-0.1,0.4-0.1l0,0l0,0l0.2,0l0,0l0,0c0,0,0,0,0.1,0
			c0.1,0,0.4,0.2,0.4,0.2c0.1,0.1,0.2,0.2,0.2,0.3c0.1,0.2,0.2,0.3,0.3,0.5c0.1,0.3,0.2,0.6,0.3,0.8c0.2,0.5,0.3,1.1,0.5,1.6
			c0.3,1.1,0.5,2.2,0.6,3.3l0.1,0.7l-0.6-0.1C50.5,45.4,49.1,45.3,47.8,45z M47.8,45c1.4-0.3,2.7-0.5,4.1-0.6l-0.6,0.7
			c-0.3-1-0.6-2.1-0.9-3.1c-0.1-0.5-0.3-1-0.5-1.5c-0.1-0.2-0.2-0.5-0.3-0.7c0-0.1-0.1-0.2-0.1-0.3c0,0,0,0,0,0c0,0,0.1,0.1,0.2,0.1
			c0.1,0,0,0,0,0l0,0l0,0c0.1,0-0.2,0,0.2,0l0,0l0,0c0.2,0,0.3-0.1,0.3-0.1c0,0,0,0,0,0c-0.1,0.1-0.1,0.2-0.2,0.3
			c-0.1,0.2-0.2,0.4-0.3,0.7c-0.2,0.5-0.4,1-0.6,1.5C48.6,42.9,48.2,44,47.8,45z"/>
	</g>
	<path fill="#1D1D1B" d="M21.4,31l6.5,1.4c0,0-0.8,2.5-4,1.5C20.8,33,21.4,31,21.4,31z"/>
	<path fill="#1D1D1B" d="M41,30.8l-6.5,1.4c0,0,0.8,2.5,4,1.5C41.7,32.8,41,30.8,41,30.8z"/>
	<path fill="#CABA9F" d="M38.9,31.4l-3.3,0.9c0,0,0.4,1.6,2,1C39.2,32.6,38.9,31.4,38.9,31.4z"/>
	<path fill="#CABA9F" d="M23.3,31.4l3.3,0.9c0,0-0.4,1.6-2,1C23,32.6,23.3,31.4,23.3,31.4z"/>
	<polygon fill="#1D1D1B" points="24.3,24.2 33.9,22.9 29.1,17.9 29.1,15.7 33.9,10.1 24.3,0 8,14.3 10.1,26.2 14.7,14.4 23.9,7.5 
		25.7,11.8 26.6,15.7 26.6,18.1 	"/>
	<rect x="26.3" y="15.7" fill="#CABA9F" width="3.3" height="2.1"/>
	<path fill="#CABA9F" d="M58,33.6"/>
	<path fill="#1D1D1B" d="M28.9,32.6c0,0,0.3,0.5,0.7,1.3c0.2,0.4,0.4,0.8,0.6,1.2c0.1,0.2,0.2,0.4,0.4,0.6c0.1,0.2,0.2,0.2,0.2,0.2
		c0,0,0,0,0,0l0,0l0,0l0,0c-0.1,0,0.1,0-0.1,0l0,0l0.1,0l0.1,0c0,0-0.1,0-0.1,0c-0.1,0.1,0,0,0,0c0.1-0.1,0.2-0.3,0.3-0.5
		c0.2-0.4,0.4-0.9,0.5-1.2c0.3-0.8,0.6-1.3,0.6-1.3s0.2,0.6,0.3,1.5c0,0.4,0,1-0.1,1.5c-0.1,0.3-0.2,0.6-0.4,0.9
		c-0.1,0.1-0.1,0.2-0.2,0.3c0,0.1-0.2,0.2-0.4,0.3c-0.1,0-0.2,0.1-0.3,0.1l-0.1,0l-0.1,0l0,0c-0.3,0-0.1,0-0.2,0l0,0l0,0l-0.1,0
		l-0.1,0c-0.7-0.1-0.9-0.6-1.1-0.8c-0.2-0.3-0.3-0.6-0.4-0.9c-0.2-0.6-0.2-1.1-0.2-1.5C28.7,33.2,28.9,32.6,28.9,32.6z"/>
	<path fill="#1D1D1B" d="M27.1,51.6c1.1-0.3,2.2-0.5,3.4-0.6c1.1-0.1,2.2-0.2,3.4-0.2l1.2,0l-0.5,1.1c-0.5,1.1-1,2.2-1.6,3.2
		c-0.6,1.1-1.2,2.1-2,3.1c0.2-1.2,0.5-2.4,0.9-3.5c0.4-1.1,0.9-2.3,1.4-3.4l0.7,1.1c-1.1,0-2.2-0.1-3.4-0.2
		C29.4,52,28.3,51.9,27.1,51.6z"/>
	<g>
		<path fill="#008D36" d="M58,59l-3.7,0.5c-1.8,0.2-3.1,1.6-2.9,3.2c0,0-1,5.4-0.3,11.1c0.7,5.7,3,10.5,3,10.5
			c0.2,1.5,1.8,2.6,3.6,2.4l3.7-0.5c1.8-0.2,3.1-1.6,2.9-3.2c0,0,1.7-5.1,1.1-10s-3.7-11.6-3.7-11.6C61.4,59.9,59.8,58.8,58,59z"/>
		<path fill="#1D1D1B" d="M58,59l-2.1,0.3l-1.1,0.1c-0.4,0-0.7,0.1-1,0.2c-0.7,0.2-1.3,0.6-1.7,1.1c-0.4,0.5-0.7,1.2-0.6,1.9l0,0
			l0,0c-0.3,1.8-0.4,3.7-0.4,5.5c0,1.8,0.1,3.7,0.4,5.5c0.1,0.4,0.1,0.9,0.2,1.3c0.1,0.4,0.2,0.9,0.3,1.3c0.2,0.9,0.5,1.8,0.7,2.6
			c0.3,0.9,0.6,1.7,0.9,2.6c0.3,0.8,0.7,1.7,1,2.5l0,0.1l0,0.1c0.1,0.8,0.8,1.4,1.6,1.7c0.2,0.1,0.4,0.1,0.7,0.1c0.2,0,0.4,0,0.7,0
			l1.6-0.2l1.6-0.2c0.2,0,0.6-0.1,0.7-0.1c0.2-0.1,0.4-0.1,0.6-0.3c0.8-0.4,1.3-1.2,1.2-2l0-0.1l0-0.1c0.3-0.8,0.5-1.7,0.7-2.6
			c0.2-0.9,0.4-1.8,0.5-2.7c0.1-0.9,0.2-1.8,0.2-2.7c0-0.5,0-0.9,0-1.4c0-0.4-0.1-0.9-0.1-1.4c-0.3-1.8-0.7-3.6-1.3-5.4
			c-0.6-1.8-1.2-3.5-1.9-5.2l0,0l0,0c-0.1-0.8-0.6-1.5-1.3-1.9C59.6,59.1,58.8,59,58,59z M58,59c0.8-0.1,1.6,0,2.3,0.5
			c0.7,0.4,1.2,1.1,1.3,1.9l0,0c0.8,1.7,1.5,3.4,2.2,5.2c0.7,1.7,1.3,3.5,1.7,5.4c0.1,0.5,0.2,0.9,0.2,1.4c0.1,0.5,0.1,0.9,0.1,1.4
			c0,0.9,0,1.9,0,2.8c-0.1,0.9-0.2,1.9-0.3,2.8c-0.2,0.9-0.3,1.9-0.6,2.8l0-0.3c0.1,0.7-0.1,1.4-0.4,2c-0.3,0.6-0.8,1.1-1.4,1.4
			c-0.3,0.2-0.6,0.3-0.9,0.4c-0.4,0.1-0.6,0.1-0.9,0.2l-1.6,0.2l-1.6,0.2c-0.2,0-0.6,0.1-1,0c-0.3,0-0.7-0.1-1-0.2
			c-0.6-0.2-1.3-0.5-1.7-1c-0.5-0.5-0.8-1.2-0.9-1.9l0.1,0.2c-0.4-0.9-0.7-1.8-1-2.6c-0.3-0.9-0.6-1.8-0.8-2.7
			c-0.2-0.9-0.4-1.8-0.6-2.7c-0.1-0.5-0.1-0.9-0.2-1.4c-0.1-0.5-0.1-0.9-0.2-1.4c-0.3-3.7,0-7.4,0.7-11.1l0,0
			c-0.1-0.7,0.2-1.5,0.7-2c0.5-0.6,1.1-0.9,1.8-1.1c0.3-0.1,0.7-0.1,1.1-0.2l1.1-0.1L58,59z"/>
	</g>
	<g>
		<path fill="#008D36" d="M51,80.8L49.6,84c-0.7,1.5-0.7,3,0,3.3c0,0,1.7,2.5,4.3,3.6c2.6,1.2,5.5,0.8,5.5,0.8
			c0.7,0.3,1.8-0.7,2.5-2.2l1.4-3.2c0.7-1.5,0.7-3,0-3.3c0,0-1.4-2.9-3.6-3.9c-2.2-1-6.3-0.5-6.3-0.5C52.8,78.3,51.7,79.3,51,80.8z"
			/>
		<path fill="#1D1D1B" d="M51,80.8c-0.5,1.1-0.9,2.2-1.4,3.2c-0.2,0.5-0.4,1.1-0.4,1.7c0,0.3,0,0.6,0.1,0.8c0.1,0.3,0.2,0.5,0.4,0.6
			l0,0l0,0c1.2,1.4,2.7,2.6,4.4,3.3c0.2,0.1,0.4,0.2,0.6,0.2c0.2,0.1,0.4,0.1,0.6,0.2c0.4,0.1,0.9,0.2,1.3,0.2c0.4,0,0.9,0,1.3,0
			c0.4,0,0.9,0,1.3-0.1l0.4,0.1c0,0,0,0,0.1-0.1c0.1,0,0.2-0.1,0.4-0.2c0.3-0.2,0.5-0.5,0.7-0.9c0.2-0.3,0.4-0.7,0.5-1.1l0.6-1.2
			l0.6-1.2l0.3-0.6c0.1-0.2,0.1-0.3,0.2-0.5c0.1-0.4,0.2-0.8,0.2-1.1c0-0.2,0-0.3-0.1-0.5c0-0.1-0.1-0.2-0.1-0.2l-0.3-0.3
			c-0.2-0.4-0.4-0.8-0.6-1.2c-0.2-0.4-0.5-0.8-0.8-1.1c-0.3-0.4-0.6-0.7-1-1c-0.2-0.1-0.4-0.3-0.6-0.4c-0.2-0.1-0.4-0.2-0.6-0.3
			c-0.4-0.2-0.9-0.3-1.4-0.4c-0.5-0.1-1-0.2-1.4-0.2c-1-0.1-1.9-0.1-2.9,0l0,0l0,0c-0.3-0.1-0.6,0-0.8,0.1c-0.3,0.1-0.5,0.3-0.7,0.6
			C51.6,79.7,51.2,80.2,51,80.8z M51,80.8c0.2-0.5,0.5-1.1,0.9-1.5c0.2-0.2,0.4-0.4,0.7-0.6c0.3-0.2,0.6-0.3,0.9-0.1l0,0
			c1-0.1,2-0.2,2.9-0.2c0.5,0,1,0,1.5,0c0.5,0,1,0.1,1.5,0.3c0.2,0.1,0.5,0.1,0.7,0.3c0.2,0.1,0.5,0.2,0.7,0.4
			c0.4,0.3,0.8,0.6,1.2,1c0.4,0.4,0.7,0.8,1,1.2c0.3,0.4,0.6,0.8,0.8,1.3l-0.3-0.3c0.4,0.2,0.6,0.5,0.8,0.8c0.1,0.3,0.2,0.6,0.2,0.9
			c0,0.5,0,1-0.2,1.5c-0.1,0.2-0.1,0.5-0.2,0.7c-0.1,0.2-0.2,0.4-0.3,0.6l-0.5,1.2l-0.5,1.2c-0.2,0.4-0.4,0.9-0.7,1.3
			c-0.3,0.4-0.6,0.8-1,1.2c-0.2,0.2-0.5,0.3-0.8,0.5c-0.3,0.1-0.8,0.2-1.2,0l0.4,0.1c-0.5,0-1,0-1.5,0c-0.5,0-1-0.1-1.5-0.2
			c-0.5-0.1-1-0.2-1.4-0.4c-0.2-0.1-0.5-0.2-0.7-0.3c-0.2-0.1-0.4-0.2-0.7-0.3c-0.9-0.5-1.7-1-2.4-1.7c-0.7-0.7-1.3-1.4-1.9-2.2
			l0.1,0.1c-0.3-0.2-0.5-0.5-0.5-0.8C49,86.3,49,86,49,85.7c0.1-0.6,0.3-1.2,0.5-1.7L51,80.8z"/>
	</g>
	<g>
		<g>
			
				<rect x="39.3" y="48" transform="matrix(0.8431 0.5378 -0.5378 0.8431 48.8084 -9.7204)" fill="#6F6F6E" width="3.6" height="61.5"/>
			<path fill="#1D1D1B" d="M26,105.6l-3.1-1.8l-0.1,0l0.1-0.1l4-6.6l4-6.6L39,77.5c2.7-4.4,5.5-8.7,8.2-13l8.2-13l0.4-0.6l0.6,0.4
				l3,1.9l0.6,0.4l-0.4,0.6l-8.3,12.9l-4.2,6.5L43,80l-8.4,12.8C31.7,97.1,28.9,101.4,26,105.6z M26,105.6c2.6-4.4,5.3-8.8,8-13.1
				l8.1-13.1l4.1-6.5l4.1-6.5l8.2-13l0.2,1l-3-1.9l1-0.2l-8.3,12.9c-2.8,4.3-5.5,8.6-8.3,12.9L31.6,91l-4.3,6.4l-4.3,6.4l0-0.1
				L26,105.6z"/>
		</g>
		<g>
			<path fill="#6F6F6E" d="M76.4,56.8l-2.7-5c0.7-0.7,1.3-1.4,1.8-2.2c0.1-0.1,0.2-0.3,0.2-0.4l5.5,1.4l-4.5-3.4
				c0.4-1,0.7-2.1,0.8-3.2l5.6-1l-5.5-1.3c-0.1-1.1-0.3-2.2-0.6-3.2l4.7-3.2L76,36.4c-0.5-1-1.1-1.9-1.8-2.7l3-4.8l-4.7,3.2
				c-0.4-0.3-0.8-0.6-1.2-0.8c-0.5-0.3-1.1-0.6-1.6-0.9l0.8-5.6l-2.9,4.9c-1.1-0.3-2.2-0.4-3.2-0.4l-1.5-5.5l-0.7,5.6
				C61,29.5,60,29.8,59,30.3l-3.6-4.4l1.6,5.4c-0.9,0.6-1.7,1.3-2.5,2.1L49.4,31l3.7,4.3c0,0,0,0,0,0.1c-0.6,0.9-1.1,1.9-1.4,2.9
				L46,38l5.1,2.4c-0.2,1.1-0.2,2.2-0.1,3.3l-5.3,2.1l5.7,0.1c0.3,1.1,0.7,2.1,1.2,3l-4,4.1l5.2-2.2c0.7,0.8,1.5,1.6,2.4,2.3l-2,5.3
				l3.9-4.1c1,0.5,2,0.9,3.1,1.1l0.4,5.7l1.9-5.4c1.1,0.1,2.2,0,3.3-0.2l2.7,5L69,54.8c1-0.4,2-0.9,2.9-1.6L76.4,56.8z"/>
			<path fill="#1D1D1B" d="M76.4,56.8l-2.8-4.9l0-0.1l0-0.1c0.8-0.8,1.4-1.7,1.9-2.6l0-0.1l0.1,0l5.5,1.3L81,50.8l-4.6-3.4l-0.2-0.1
				l0.1-0.2c0.4-1,0.6-2.1,0.7-3.1l0-0.2l0.2,0l5.6-1l0,0.8l-5.5-1.3l-0.3-0.1l0-0.3c-0.1-1.1-0.3-2.1-0.6-3.1l-0.1-0.3l0.3-0.2
				l4.7-3.2l0.4,0.9l-5.6,1.1L75.7,37l-0.2-0.4c-0.5-0.9-1.1-1.8-1.8-2.6l-0.3-0.3l0.2-0.4l3-4.8l0.9,0.8l-4.6,3.3l-0.4,0.3
				l-0.4-0.3l-0.6-0.5l-0.3-0.2L71,31.8l-0.1-0.1L69.4,31L69,30.8l0.1-0.4l0.8-5.6l1.2,0.4L68.2,30l-0.3,0.4l-0.5-0.1
				c-1-0.3-2-0.4-3.1-0.4l-0.5,0l-0.1-0.5l-1.6-5.5l1.4-0.1l-0.7,5.6L62.7,30l-0.5,0.1c-1,0.2-2,0.5-3,0.9l-0.5,0.2l-0.3-0.4
				l-3.6-4.4l1.3-0.7l1.7,5.4l0.2,0.5L57.4,32c-0.9,0.6-1.7,1.2-2.4,2l-0.4,0.4l-0.5-0.2L49,31.6l0.9-1.1l3.7,4.3l0.3,0.4l-0.3,0.5
				L53.5,36l-0.2,0.3c-0.1,0.2-0.2,0.5-0.4,0.7c-0.2,0.5-0.4,0.9-0.6,1.4L52.2,39l-0.5,0l-5.7-0.2l0.3-1.3l5.1,2.4l0.5,0.2l-0.1,0.5
				c-0.2,1-0.2,2.1-0.1,3.1l0,0.5l-0.5,0.2L46,46.4l-0.2-1.3l5.7,0.1l0.5,0l0.1,0.5c0.3,1,0.7,2,1.2,2.9l0.2,0.4l-0.3,0.3l-4,4.1
				l-0.7-1l5.3-2.2l0.4-0.2l0.3,0.3c0.7,0.8,1.4,1.6,2.3,2.2l0.3,0.2l-0.1,0.4l-2,5.3L54,58.1l3.9-4.1l0.2-0.2l0.3,0.2
				c0.9,0.5,1.9,0.9,3,1.1l0.3,0.1l0,0.3l0.3,5.7l-0.7-0.1l1.9-5.3l0.1-0.2l0.2,0c1.1,0.1,2.1,0,3.2-0.2l0.2,0l0.1,0.2l2.6,5.1
				l-0.4,0.1l-0.4-5.7l0-0.1l0.1,0c1-0.4,2-0.9,2.9-1.5l0.1,0l0.1,0L76.4,56.8z M76.4,56.8l-4.5-3.4l0.1,0c-0.9,0.7-1.9,1.2-2.9,1.6
				l0.1-0.1l0.5,5.7l0.1,1l-0.5-0.9l-2.7-5l0.3,0.1c-1.1,0.2-2.2,0.3-3.3,0.3l0.3-0.2l-1.8,5.4L61.5,63l-0.1-1.9l-0.4-5.7l0.3,0.4
				c-1.1-0.2-2.2-0.6-3.2-1.1l0.5-0.1l-3.9,4.2l-1.6,1.8l0.8-2.3l1.9-5.4l0.2,0.6c-0.9-0.7-1.8-1.5-2.5-2.3l0.7,0.2l-5.2,2.2
				l-2.7,1.2l2.1-2.2l3.9-4.1l-0.1,0.8c-0.6-1-1-2.1-1.3-3.2l0.6,0.5l-5.7-0.1l-3.2-0.1l3-1.2l5.3-2.1l-0.4,0.7
				c-0.1-1.1-0.1-2.3,0.1-3.4l0.4,0.7l-5.1-2.4l-3.1-1.4l3.4,0.1l5.7,0.2L51,38c0.2-0.5,0.4-1.1,0.6-1.6c0.1-0.3,0.3-0.5,0.4-0.8
				l0.2-0.4l0.2-0.4l0.1,0.9l-3.7-4.3l-2.4-2.7l3.2,1.6l5.1,2.5L53.9,33c0.8-0.9,1.7-1.6,2.6-2.2l-0.3,0.8l-1.6-5.4l-1-3.4l2.3,2.8
				l3.6,4.4l-0.8-0.2c1.1-0.5,2.2-0.8,3.3-1l-0.6,0.6l0.7-5.6l0.4-3.4l0.9,3.3L65,29l-0.6-0.5c1.2,0,2.3,0.2,3.4,0.5L67,29.3l3-4.9
				l1.7-2.8l-0.5,3.2l-0.8,5.6l-0.3-0.7l1.4,0.8l0.2,0.1l0.2,0.1l0.3,0.3l0.7,0.5l-0.8,0l4.7-3.2l2.4-1.7l-1.6,2.5L74.6,34l-0.1-0.7
				c0.7,0.9,1.4,1.8,1.9,2.8l-0.6-0.3l5.6-1l2.4-0.4l-2,1.3l-4.7,3.1l0.2-0.5c0.3,1.1,0.5,2.2,0.6,3.3l-0.3-0.4l5.5,1.3l1.8,0.4
				l-1.9,0.3l-5.6,0.9l0.3-0.3c-0.1,1.1-0.4,2.2-0.8,3.2l-0.1-0.3l4.5,3.5l0.8,0.6l-1-0.3l-5.5-1.5l0.2-0.1
				c-0.6,0.9-1.3,1.8-2.1,2.6l0-0.1L76.4,56.8z"/>
		</g>
		<g>
			<polygon fill="#6F6F6E" points="72.5,29.4 68.6,33.2 70.7,34.6 			"/>
			<path fill="#1D1D1B" d="M72.5,29.4c-0.5,0.8-1,1.6-1.6,2.3c-0.6,0.7-1.2,1.4-1.8,2.1L69,32.6c0.7,0.4,1.5,0.9,2.2,1.4l-1.1,0.4
				c0.3-0.9,0.7-1.7,1.1-2.5C71.5,31,72,30.1,72.5,29.4z M72.5,29.4c0,0.9-0.2,1.9-0.4,2.8c-0.2,0.9-0.4,1.8-0.7,2.7l-0.3,0.9
				l-0.8-0.5c-0.7-0.4-1.5-0.9-2.2-1.4l-0.8-0.5l0.6-0.6c0.7-0.6,1.4-1.2,2.1-1.8C70.9,30.4,71.7,29.8,72.5,29.4z"/>
		</g>
		<g>
			<polygon fill="#6F6F6E" points="56.2,37.2 58.4,40.1 59.8,37.9 			"/>
			<path fill="#1D1D1B" d="M56.2,37.2c0.6,0.3,1,0.7,1.5,1.1c0.5,0.4,0.9,0.8,1.3,1.3l-1.2,0.1c0.4-0.8,0.9-1.5,1.4-2.2l0.5,1.1
				c-0.6-0.2-1.2-0.4-1.8-0.6C57.3,37.8,56.8,37.6,56.2,37.2z M56.2,37.2c0.6-0.1,1.3-0.1,1.9-0.1c0.6,0,1.2,0.1,1.8,0.1l1,0.1
				l-0.5,0.9c-0.4,0.7-0.9,1.5-1.4,2.2l-0.6,0.8l-0.5-0.8c-0.3-0.5-0.6-1-0.9-1.6C56.6,38.4,56.4,37.8,56.2,37.2z"/>
		</g>
		<g>
			<polygon fill="#6F6F6E" points="62.2,33.3 61.8,36.9 64.3,36.3 			"/>
			<path fill="#1D1D1B" d="M62.2,33.3c0.2,0.6,0.2,1.2,0.3,1.9c0,0.6,0,1.2,0,1.8l-0.9-0.8c0.8-0.2,1.7-0.4,2.5-0.6l-0.4,1.1
				c-0.3-0.5-0.6-1.1-0.8-1.6C62.6,34.5,62.4,33.9,62.2,33.3z M62.2,33.3c0.5,0.4,1,0.8,1.4,1.2c0.4,0.4,0.8,0.9,1.2,1.4l0.6,0.8
				l-1,0.3c-0.8,0.2-1.7,0.4-2.5,0.6l-1,0.2l0.2-0.9c0.1-0.6,0.3-1.2,0.4-1.8C61.7,34.4,61.9,33.8,62.2,33.3z"/>
		</g>
		<g>
			<polygon fill="#6F6F6E" points="69.3,34.7 66.4,37 68.6,38.3 			"/>
			<path fill="#1D1D1B" d="M69.3,34.7c-0.3,0.6-0.7,1-1.1,1.5c-0.4,0.5-0.8,0.9-1.3,1.3l-0.1-1.2c0.8,0.4,1.5,0.9,2.2,1.4l-1.1,0.5
				c0.1-0.6,0.3-1.2,0.6-1.8C68.7,35.9,68.9,35.3,69.3,34.7z M69.3,34.7c0.1,0.6,0.1,1.3,0.1,1.9c0,0.6,0,1.2-0.1,1.8l-0.1,1
				l-0.9-0.5c-0.8-0.4-1.5-0.9-2.2-1.4L65.2,37l0.8-0.5c0.5-0.3,1-0.6,1.6-0.9C68.1,35.2,68.7,34.9,69.3,34.7z"/>
		</g>
		<g>
			<polygon fill="#6F6F6E" points="73.2,40.7 69.6,40.3 70.2,42.8 			"/>
			<path fill="#1D1D1B" d="M73.2,40.7C72.6,40.9,72,41,71.4,41c-0.6,0-1.2,0-1.8,0l0.8-0.9c0.2,0.8,0.4,1.7,0.6,2.5l-1.1-0.4
				c0.5-0.3,1.1-0.6,1.6-0.8C72,41.1,72.6,40.9,73.2,40.7z M73.2,40.7c-0.4,0.5-0.8,1-1.2,1.4c-0.4,0.4-0.9,0.8-1.4,1.2L69.8,44
				l-0.3-1c-0.2-0.8-0.4-1.7-0.6-2.5l-0.2-1l0.9,0.2c0.6,0.1,1.2,0.3,1.8,0.4C72.1,40.2,72.7,40.4,73.2,40.7z"/>
		</g>
		<g>
			<polygon fill="#6F6F6E" points="71.8,47.8 69.6,45 68.2,47.1 			"/>
			<path fill="#1D1D1B" d="M71.8,47.8c-0.6-0.3-1-0.7-1.5-1.1c-0.5-0.4-0.9-0.8-1.3-1.3l1.2-0.1c-0.4,0.8-0.9,1.5-1.4,2.2l-0.5-1.1
				c0.6,0.1,1.2,0.3,1.8,0.6C70.7,47.2,71.3,47.5,71.8,47.8z M71.8,47.8c-0.6,0.1-1.3,0.1-1.9,0.1c-0.6,0-1.2,0-1.8-0.1l-1-0.1
				l0.5-0.9c0.4-0.8,0.9-1.5,1.4-2.2l0.6-0.8l0.5,0.8c0.3,0.5,0.7,1,0.9,1.6C71.4,46.6,71.6,47.2,71.8,47.8z"/>
		</g>
		<g>
			<polygon fill="#6F6F6E" points="65.8,51.8 66.2,48.2 63.8,48.8 			"/>
			<path fill="#1D1D1B" d="M65.8,51.8c-0.2-0.6-0.2-1.2-0.3-1.9c0-0.6,0-1.2,0-1.8l0.9,0.8c-0.8,0.3-1.6,0.4-2.5,0.6l0.4-1.1
				c0.3,0.5,0.6,1.1,0.9,1.6C65.4,50.6,65.7,51.2,65.8,51.8z M65.8,51.8c-0.5-0.4-1-0.8-1.4-1.2c-0.4-0.4-0.8-0.9-1.2-1.4l-0.6-0.8
				l1-0.3c0.8-0.2,1.6-0.4,2.5-0.6l1-0.2l-0.2,0.9c-0.1,0.6-0.3,1.2-0.4,1.8C66.3,50.6,66.1,51.2,65.8,51.8z"/>
		</g>
		<g>
			<polygon fill="#6F6F6E" points="58.8,50.4 61.6,48.1 59.4,46.8 			"/>
			<path fill="#1D1D1B" d="M58.8,50.4c0.3-0.6,0.7-1,1.1-1.5c0.4-0.5,0.8-0.9,1.3-1.3l0.1,1.2c-0.8-0.4-1.5-0.8-2.2-1.3l1.1-0.5
				c-0.1,0.6-0.3,1.2-0.5,1.8C59.4,49.3,59.1,49.8,58.8,50.4z M58.8,50.4c-0.1-0.6-0.1-1.3-0.2-1.9c0-0.6,0-1.2,0.1-1.8l0.1-1
				l0.9,0.5c0.8,0.4,1.5,0.9,2.2,1.3l0.8,0.6L62,48.7c-0.5,0.3-1,0.7-1.6,1C59.9,49.9,59.4,50.2,58.8,50.4z"/>
		</g>
		<g>
			<polygon fill="#6F6F6E" points="54.7,44.4 58.3,44.8 57.8,42.4 			"/>
			<path fill="#1D1D1B" d="M54.7,44.4c0.6-0.2,1.2-0.2,1.9-0.3c0.6,0,1.2-0.1,1.8,0L57.7,45c-0.3-0.8-0.5-1.6-0.6-2.5l1.1,0.4
				c-0.5,0.3-1.1,0.6-1.6,0.9C56,44.1,55.4,44.3,54.7,44.4z M54.7,44.4c0.4-0.5,0.8-1,1.2-1.4c0.4-0.4,0.9-0.9,1.4-1.2l0.8-0.6
				l0.3,1c0.3,0.8,0.4,1.6,0.6,2.5l0.2,1l-0.9-0.2c-0.6-0.1-1.2-0.3-1.8-0.4C55.9,44.9,55.3,44.7,54.7,44.4z"/>
		</g>
		<g>
			<polygon fill="#6F6F6E" points="77.1,33.9 72,35.8 73.4,37.9 			"/>
			<path fill="#1D1D1B" d="M77.1,33.9c-0.8,0.6-1.6,1-2.4,1.5c-0.8,0.4-1.6,0.8-2.5,1.2l0.3-1.1c0.5,0.7,1,1.4,1.4,2.1l-1.1-0.1
				c0.6-0.7,1.3-1.3,2-1.9C75.5,35,76.3,34.4,77.1,33.9z M77.1,33.9c-0.4,0.9-0.9,1.6-1.5,2.4c-0.5,0.7-1.1,1.5-1.7,2.2l-0.6,0.7
				l-0.6-0.8c-0.5-0.7-1-1.4-1.4-2.1l-0.5-0.8l0.8-0.3c0.9-0.3,1.7-0.5,2.6-0.8C75.2,34.1,76.1,33.9,77.1,33.9z"/>
		</g>
		<g>
			<polygon fill="#6F6F6E" points="79.4,39.8 74,39.6 74.4,42.1 			"/>
			<path fill="#1D1D1B" d="M79.4,39.8c-0.9,0.2-1.8,0.3-2.8,0.4c-0.9,0.1-1.8,0.1-2.7,0.1l0.7-0.9c0.2,0.8,0.3,1.7,0.5,2.5l-1-0.5
				c0.8-0.4,1.7-0.7,2.6-0.9C77.6,40.2,78.5,40,79.4,39.8z M79.4,39.8c-0.7,0.6-1.5,1.1-2.3,1.6c-0.8,0.5-1.6,0.9-2.4,1.3l-0.8,0.4
				l-0.2-0.9c-0.2-0.8-0.3-1.7-0.5-2.5l-0.1-0.9l0.9,0.1c0.9,0.1,1.8,0.2,2.7,0.3C77.6,39.3,78.5,39.5,79.4,39.8z"/>
		</g>
		<g>
			<polygon fill="#6F6F6E" points="79.2,46.2 74.3,43.8 73.8,46.3 			"/>
			<path fill="#1D1D1B" d="M79.2,46.2c-0.9-0.2-1.8-0.5-2.7-0.7c-0.9-0.3-1.7-0.6-2.5-1l1-0.5c-0.2,0.8-0.4,1.7-0.6,2.5l-0.7-0.9
				c0.9,0,1.8,0.1,2.7,0.2C77.4,45.9,78.3,46,79.2,46.2z M79.2,46.2c-0.9,0.3-1.8,0.4-2.7,0.6c-0.9,0.1-1.8,0.2-2.7,0.2l-0.9,0
				l0.2-0.9c0.2-0.8,0.4-1.7,0.6-2.5l0.2-0.9l0.8,0.4c0.8,0.4,1.6,0.9,2.4,1.4C77.8,45.1,78.5,45.6,79.2,46.2z"/>
		</g>
		<g>
			<polygon fill="#6F6F6E" points="76.5,52 73,47.8 71.4,49.9 			"/>
			<path fill="#1D1D1B" d="M76.5,52c-0.8-0.5-1.5-1.1-2.2-1.8c-0.7-0.6-1.3-1.3-1.9-2l1.1,0c-0.5,0.7-1,1.4-1.5,2l-0.3-1.1
				c0.8,0.4,1.6,0.8,2.4,1.3C75,51,75.7,51.4,76.5,52z M76.5,52c-0.9-0.1-1.8-0.3-2.7-0.6c-0.9-0.3-1.8-0.5-2.6-0.9l-0.8-0.3
				l0.5-0.8c0.5-0.7,1-1.4,1.5-2l0.6-0.7l0.5,0.7c0.6,0.7,1.1,1.5,1.6,2.2C75.6,50.4,76.1,51.2,76.5,52z"/>
		</g>
		<g>
			<polygon fill="#6F6F6E" points="71.7,56.2 70.1,51 67.9,52.3 			"/>
			<path fill="#1D1D1B" d="M71.7,56.2c-0.5-0.8-0.9-1.6-1.3-2.5c-0.4-0.8-0.7-1.7-1-2.6l1.1,0.4c-0.7,0.4-1.5,0.9-2.2,1.3l0.2-1.1
				c0.6,0.7,1.2,1.4,1.7,2.1C70.7,54.6,71.2,55.4,71.7,56.2z M71.7,56.2c-0.8-0.5-1.5-1.1-2.3-1.6c-0.7-0.6-1.4-1.2-2-1.8l-0.6-0.6
				l0.8-0.5c0.7-0.4,1.5-0.9,2.2-1.3l0.8-0.4l0.2,0.9c0.2,0.9,0.4,1.8,0.6,2.7C71.5,54.4,71.6,55.3,71.7,56.2z"/>
		</g>
		<g>
			<polygon fill="#6F6F6E" points="65.5,58.2 66.2,52.7 63.7,53 			"/>
			<path fill="#1D1D1B" d="M65.5,58.2c-0.1-0.9-0.2-1.9-0.2-2.8c0-0.9,0-1.8,0.1-2.7l0.8,0.8c-0.8,0.1-1.7,0.2-2.5,0.3l0.6-1
				c0.3,0.9,0.5,1.8,0.7,2.7C65.3,56.3,65.5,57.2,65.5,58.2z M65.5,58.2c-0.6-0.8-1-1.6-1.4-2.4c-0.4-0.8-0.8-1.7-1.1-2.5l-0.3-0.8
				l0.9-0.1c0.8-0.1,1.7-0.2,2.5-0.3l0.9-0.1l-0.1,0.9c-0.1,0.9-0.3,1.8-0.5,2.7C66.1,56.4,65.9,57.3,65.5,58.2z"/>
		</g>
		<g>
			<polygon fill="#6F6F6E" points="59.2,57.5 61.9,52.8 59.5,52 			"/>
			<path fill="#1D1D1B" d="M59.2,57.5c0.2-0.9,0.6-1.8,0.9-2.6c0.4-0.8,0.8-1.7,1.2-2.5l0.4,1.1c-0.8-0.2-1.6-0.5-2.4-0.8l0.9-0.6
				c-0.1,0.9-0.2,1.8-0.4,2.7C59.7,55.7,59.5,56.6,59.2,57.5z M59.2,57.5c-0.2-0.9-0.3-1.9-0.3-2.8c0-0.9-0.1-1.8,0-2.8l0-0.9
				l0.9,0.3c0.8,0.2,1.6,0.5,2.4,0.8l0.9,0.3l-0.5,0.7c-0.5,0.8-1,1.5-1.6,2.2C60.4,56.1,59.8,56.8,59.2,57.5z"/>
		</g>
		<g>
			<polygon fill="#6F6F6E" points="53.6,54.3 58,51.1 56.1,49.4 			"/>
			<path fill="#1D1D1B" d="M53.6,54.3c0.6-0.7,1.2-1.4,1.9-2c0.7-0.6,1.4-1.2,2.1-1.8l-0.1,1.1c-0.7-0.5-1.3-1.1-1.9-1.7l1.1-0.2
				c-0.4,0.8-0.9,1.6-1.4,2.3C54.8,52.9,54.2,53.6,53.6,54.3z M53.6,54.3c0.2-0.9,0.5-1.8,0.8-2.7c0.3-0.9,0.7-1.7,1.1-2.5l0.4-0.8
				l0.7,0.6c0.7,0.5,1.3,1.1,1.9,1.7l0.7,0.6l-0.7,0.5c-0.8,0.5-1.5,1-2.3,1.4C55.3,53.6,54.5,54,53.6,54.3z"/>
		</g>
		<g>
			<polygon fill="#6F6F6E" points="49.7,49.2 55.1,48 54,45.7 			"/>
			<path fill="#1D1D1B" d="M49.7,49.2c0.8-0.4,1.7-0.8,2.6-1.1c0.9-0.3,1.7-0.6,2.6-0.8l-0.5,1c-0.4-0.8-0.8-1.5-1.1-2.3l1.1,0.3
				c-0.7,0.6-1.5,1.1-2.3,1.6C51.4,48.3,50.6,48.8,49.7,49.2z M49.7,49.2c0.5-0.8,1.2-1.5,1.8-2.1c0.6-0.7,1.3-1.3,2-1.9l0.7-0.6
				l0.4,0.8c0.4,0.8,0.8,1.5,1.1,2.3l0.4,0.9l-0.9,0.2c-0.9,0.2-1.8,0.3-2.7,0.4C51.6,49.2,50.7,49.2,49.7,49.2z"/>
		</g>
		<g>
			<polygon fill="#6F6F6E" points="48.3,42.9 53.7,44 53.6,41.4 			"/>
			<path fill="#1D1D1B" d="M48.3,42.9c0.9-0.1,1.9,0,2.8,0c0.9,0.1,1.8,0.2,2.7,0.3L52.9,44c-0.1-0.9-0.1-1.7-0.1-2.6l0.9,0.7
				c-0.9,0.2-1.8,0.4-2.7,0.5C50.2,42.8,49.2,42.9,48.3,42.9z M48.3,42.9c0.8-0.5,1.7-0.9,2.5-1.2c0.9-0.3,1.7-0.7,2.6-0.9l0.9-0.3
				l0.1,0.9c0.1,0.9,0.1,1.7,0.1,2.6l0,0.9l-0.9-0.2c-0.9-0.2-1.8-0.5-2.6-0.7C50,43.6,49.1,43.3,48.3,42.9z"/>
		</g>
		<g>
			<polygon fill="#6F6F6E" points="49.5,36.6 53.9,39.7 54.9,37.4 			"/>
			<path fill="#1D1D1B" d="M49.5,36.6c0.9,0.3,1.7,0.7,2.5,1.1c0.8,0.4,1.6,0.9,2.4,1.4l-1.1,0.3c0.3-0.8,0.6-1.6,1-2.4l0.6,1
				c-0.9-0.2-1.8-0.4-2.7-0.6C51.2,37.2,50.3,37,49.5,36.6z M49.5,36.6c0.9-0.1,1.9-0.1,2.8-0.1c0.9,0,1.8,0.1,2.7,0.2l0.9,0.1
				l-0.3,0.9c-0.3,0.8-0.6,1.6-1,2.4l-0.4,0.8l-0.7-0.5c-0.7-0.5-1.4-1.1-2.1-1.7C50.7,38,50.1,37.3,49.5,36.6z"/>
		</g>
		<g>
			<polygon fill="#6F6F6E" points="53.1,31.3 55.9,35.9 57.7,34.2 			"/>
			<path fill="#1D1D1B" d="M53.1,31.3c0.7,0.6,1.3,1.4,1.9,2.1c0.6,0.7,1.1,1.5,1.6,2.2l-1.1-0.1c0.6-0.6,1.2-1.2,1.8-1.8l0.1,1.1
				c-0.8-0.5-1.5-1-2.2-1.6C54.4,32.6,53.7,32,53.1,31.3z M53.1,31.3c0.9,0.3,1.8,0.6,2.6,1c0.8,0.4,1.7,0.8,2.4,1.3l0.8,0.5
				l-0.7,0.7c-0.6,0.6-1.2,1.2-1.8,1.8l-0.7,0.6l-0.4-0.8c-0.5-0.8-0.9-1.6-1.2-2.4C53.7,33,53.3,32.2,53.1,31.3z"/>
		</g>
		<g>
			<polygon fill="#6F6F6E" points="58.5,27.8 59.2,33.3 61.6,32.4 			"/>
			<path fill="#1D1D1B" d="M58.5,27.8c0.4,0.9,0.6,1.8,0.9,2.6c0.2,0.9,0.4,1.8,0.6,2.7l-1-0.6c0.8-0.3,1.6-0.6,2.4-0.9L61,32.8
				c-0.5-0.8-1-1.6-1.4-2.4C59.2,29.6,58.8,28.7,58.5,27.8z M58.5,27.8c0.7,0.6,1.4,1.3,2,2c0.6,0.7,1.2,1.4,1.7,2.1l0.5,0.7
				L61.9,33c-0.8,0.3-1.6,0.6-2.4,0.9l-0.9,0.3l-0.1-0.9c-0.1-0.9-0.1-1.8-0.2-2.7C58.3,29.7,58.4,28.8,58.5,27.8z"/>
		</g>
		<g>
			<polygon fill="#6F6F6E" points="64.8,26.9 63.3,32.1 65.9,32.3 			"/>
			<path fill="#1D1D1B" d="M64.8,26.9c0,0.9-0.1,1.9-0.2,2.8c-0.2,0.9-0.3,1.8-0.5,2.7l-0.7-0.9c0.9,0,1.7,0.1,2.6,0.1l-0.7,0.9
				c-0.2-0.9-0.3-1.8-0.3-2.7C64.8,28.7,64.8,27.8,64.8,26.9z M64.8,26.9c0.4,0.8,0.7,1.7,1,2.6c0.3,0.9,0.5,1.8,0.7,2.7l0.2,0.9
				l-1,0c-0.9,0-1.7-0.1-2.6-0.1l-0.9-0.1l0.3-0.8c0.3-0.9,0.6-1.7,0.9-2.6C64,28.5,64.3,27.7,64.8,26.9z"/>
		</g>
	</g>
	<g>
		<path fill="#008D36" d="M39.8,90.7l-5.2-3.5c-0.2-0.2-0.5-0.2-0.8-0.3l-5.4-3.6c-1.8-1.2-4.3-0.7-5.6,1l-4.8,6.5
			c-1.3,1.8-0.9,4.2,0.9,5.4l5.5,3.7c0.1,0.1,0.2,0.2,0.3,0.2l5.2,3.5c0.7,0.5,1.8,0.3,2.3-0.4l0.5-0.6c0.5-0.6,0.4-1.5-0.1-2
			c0.7,0.5,1.7,0.3,2.3-0.5l0.5-0.6c0.5-0.7,0.4-1.5-0.1-2c0.7,0.4,1.7,0.2,2.2-0.5l0.5-0.6c0.5-0.7,0.4-1.7-0.4-2.2l-1.1-0.7
			c0,0,0,0,0,0l0.9,0.6c0.7,0.5,1.8,0.3,2.3-0.4l0.5-0.6C40.7,92.2,40.5,91.2,39.8,90.7z"/>
		<path fill="#1D1D1B" d="M39.8,90.7l-3-2l-1.5-1c-0.5-0.3-1-0.7-1.5-0.8l0,0l0,0c-1.2-0.8-2.3-1.5-3.5-2.3l-1.8-1.1
			c-0.6-0.4-1.2-0.6-1.8-0.6c-1.3-0.1-2.6,0.5-3.3,1.5L20.9,88l-2.4,3.4c-0.6,1-0.7,2.3-0.1,3.3c0.1,0.2,0.3,0.5,0.5,0.7
			c0.2,0.2,0.4,0.3,0.7,0.5l1.7,1.2l3.5,2.4l0.1,0.1c0.1,0,0.1,0.1,0.2,0.1l0.3,0.2l0.6,0.4l1.2,0.9l2.5,1.8l0.3,0.2l0.1,0.1
			c0,0,0.1,0.1,0.1,0.1c0.1,0.1,0.3,0.1,0.5,0.1c0.3,0,0.7-0.1,0.9-0.4c0.1-0.1,0.3-0.4,0.5-0.6c0.2-0.2,0.2-0.3,0.3-0.5
			c0.1-0.3,0-0.7-0.2-1l-2-2.4l2.6,1.7c0.3,0.2,0.7,0.3,1,0.2c0.2,0,0.3-0.1,0.5-0.2c0.2-0.1,0.3-0.2,0.4-0.4l0.2-0.3
			c0.1-0.1,0.1-0.2,0.2-0.3c0.1-0.1,0.2-0.3,0.2-0.5c0.1-0.4-0.1-0.8-0.3-1.1l-1.2-1.2l1.5,0.8c0.4,0.2,1,0.2,1.5,0
			c0.2-0.1,0.4-0.3,0.6-0.6c0.2-0.2,0.4-0.5,0.5-0.7c0.3-0.5,0.2-1.1-0.1-1.5c-0.2-0.2-0.4-0.4-0.7-0.5l-0.7-0.5l-0.1,0l0-0.1l0,0
			l0-0.1l0.1,0l0.7,0.5c0.2,0.2,0.5,0.3,0.8,0.4c0.6,0.1,1.2-0.1,1.5-0.5c0.2-0.2,0.3-0.5,0.5-0.7c0.2-0.2,0.3-0.5,0.3-0.8
			C40.5,91.6,40.2,91,39.8,90.7z M39.8,90.7c0.5,0.3,0.8,0.9,0.7,1.5c0,0.3-0.2,0.6-0.3,0.8c-0.2,0.2-0.3,0.5-0.5,0.7
			c-0.4,0.4-1,0.7-1.6,0.6c-0.3,0-0.6-0.2-0.8-0.3l-0.7-0.5l0.1,0l0,0l0-0.1l0.7,0.5c0.2,0.2,0.5,0.3,0.7,0.5
			c0.4,0.5,0.5,1.2,0.2,1.8c-0.1,0.3-0.3,0.5-0.5,0.8c-0.1,0.2-0.4,0.5-0.6,0.7c-0.5,0.4-1.3,0.4-1.9,0.1l0.3-0.4
			c0.4,0.4,0.6,0.9,0.6,1.5c0,0.3-0.1,0.5-0.3,0.8c-0.1,0.1-0.1,0.2-0.2,0.3l-0.2,0.3c-0.1,0.2-0.3,0.4-0.5,0.6
			c-0.2,0.2-0.5,0.3-0.7,0.4c-0.5,0.2-1.2,0.1-1.7-0.2l0.5-0.6c0.5,0.5,0.7,1.2,0.5,1.8c-0.1,0.3-0.2,0.6-0.4,0.9
			c-0.2,0.2-0.3,0.4-0.5,0.6c-0.4,0.5-1.1,0.8-1.7,0.9c-0.3,0-0.7-0.1-1-0.2c-0.1,0-0.1-0.1-0.2-0.1l-0.2-0.1l-0.3-0.2l-2.6-1.6
			l-1.3-0.8l-0.6-0.4l-0.3-0.2c-0.1-0.1-0.3-0.2-0.4-0.4l0.1,0.1l-3.5-2.3l-1.7-1.2c-0.3-0.2-0.6-0.4-0.9-0.7
			c-0.3-0.3-0.6-0.6-0.8-1c-0.9-1.5-0.7-3.4,0.2-4.7c0.4-0.6,0.9-1.1,1.3-1.7l1.3-1.7l2.6-3.3c1-1.2,2.6-1.8,4.1-1.6
			c0.7,0.1,1.5,0.4,2,0.8l1.7,1.2c1.1,0.8,2.3,1.6,3.4,2.4l0,0c0.3,0,0.6,0.2,0.8,0.3l0.7,0.5l1.5,1L39.8,90.7z"/>
	</g>
	<g>
		<path fill="#008D36" d="M27.6,82.9c0,0,5.1-2,6.4-1.6s1.3,2.2,1.3,2.2l0.1,4.3L27.6,82.9z"/>
		<path fill="#1D1D1B" d="M27.6,82.9c1-0.6,2-1.1,3.1-1.5c0.5-0.2,1.1-0.4,1.7-0.6c0.3-0.1,0.6-0.1,0.9-0.2c0.2,0,0.3,0,0.5,0
			c0.1,0,0.2,0,0.3,0c0,0,0,0,0.1,0l0.1,0l0.1,0c0.1,0,0.4,0.2,0.5,0.3c0.2,0.1,0.3,0.3,0.4,0.4c0.2,0.3,0.4,0.6,0.5,1
			c0.1,0.3,0.2,0.7,0.2,1l0,0.9c0,1.1,0,2.3,0,3.4l0,1.3l-1.1-0.7c-0.6-0.4-1.3-0.9-1.9-1.3c-0.6-0.4-1.3-0.9-1.9-1.3
			C30,84.9,28.8,83.9,27.6,82.9z M27.6,82.9c1.4,0.6,2.8,1.3,4.2,2c0.7,0.4,1.4,0.7,2,1.1c0.7,0.4,1.3,0.8,2,1.2l-1.1,0.6
			c0-1.1-0.1-2.3-0.1-3.4l0-0.9c0-0.2,0-0.5-0.1-0.7c-0.1-0.2-0.1-0.4-0.2-0.6c0-0.1-0.1-0.1-0.2-0.2C34.1,82,34.1,82,34,82l-0.1,0
			l0,0c0.1,0,0,0,0,0c0,0-0.1,0-0.1,0c-0.1,0-0.2,0-0.3,0c-0.2,0-0.5,0-0.8,0.1c-0.5,0.1-1.1,0.2-1.6,0.3L27.6,82.9z"/>
	</g>
	<g>
		<path fill="#008D36" d="M40.3,68.1l5.7,2.7c0.3,0.1,0.5,0.3,0.6,0.5l5.8,2.7c2,0.9,2.9,3.3,2,5.4l-3.1,7.4c-0.9,2-3.1,3-5.1,2
			L40.2,86c-0.1,0-0.2-0.1-0.4-0.1l-5.7-2.7c-0.8-0.4-1.2-1.4-0.8-2.2l0.3-0.7c0.3-0.7,1-1.1,1.8-1c-0.8-0.4-1.1-1.4-0.8-2.2
			l0.3-0.7c0.3-0.7,1.1-1.1,1.8-0.9c-0.7-0.4-1-1.3-0.7-2.1l0.3-0.7c0.4-0.8,1.3-1.2,2.1-0.8l1.2,0.5c0,0,0,0,0,0l-0.9-0.4
			c-0.8-0.4-1.2-1.4-0.8-2.2l0.3-0.7C38.5,68.1,39.5,67.7,40.3,68.1z"/>
		<path fill="#1D1D1B" d="M40.3,68.1l3.2,1.5l1.6,0.7l0.8,0.4c0.3,0.1,0.5,0.3,0.7,0.5l0,0c1.3,0.6,2.6,1.1,3.8,1.7l1.9,0.8
			c0.7,0.3,1.3,0.7,1.8,1.3c0.9,1.2,1.2,2.9,0.7,4.3l-1.5,3.9l-0.8,2c-0.3,0.7-0.5,1.3-0.8,2c-0.7,1.5-2.2,2.6-3.9,2.6
			c-0.4,0-0.8,0-1.2-0.1c-0.4-0.1-0.8-0.3-1.1-0.4l-1.9-0.9l-3.8-1.8l0.2,0.1c-0.2-0.1-0.4-0.1-0.5-0.2l-0.3-0.2L38.5,86l-1.4-0.7
			L34.4,84L34,83.8l-0.2-0.1c-0.1,0-0.1,0-0.2-0.1c-0.3-0.2-0.5-0.5-0.7-0.8c-0.3-0.6-0.4-1.3-0.2-1.9c0.1-0.3,0.2-0.5,0.3-0.7
			c0.1-0.2,0.3-0.6,0.5-0.8c0.5-0.5,1.2-0.7,1.8-0.5l-0.3,0.8c-0.5-0.3-0.9-0.8-1-1.3c-0.1-0.3-0.1-0.6,0-0.8c0-0.3,0.2-0.5,0.3-0.7
			l0.1-0.3c0-0.1,0.1-0.2,0.2-0.3c0.1-0.3,0.3-0.5,0.5-0.6c0.4-0.3,1-0.4,1.6-0.3l-0.2,0.5c-0.6-0.4-0.9-1-0.9-1.7
			c0-0.3,0.1-0.7,0.3-0.9c0.1-0.3,0.2-0.5,0.4-0.8c0.4-0.5,1-0.8,1.6-0.7c0.3,0,0.6,0.2,0.8,0.3l0.8,0.4l-0.1,0l0,0l0,0.1L38.8,72
			c-0.3-0.1-0.5-0.3-0.7-0.5c-0.4-0.5-0.5-1.1-0.3-1.7c0.1-0.3,0.2-0.5,0.3-0.8c0.1-0.3,0.3-0.5,0.5-0.7
			C39.1,67.9,39.7,67.9,40.3,68.1z M40.3,68.1c-0.5-0.2-1.2-0.2-1.6,0.2c-0.2,0.2-0.4,0.4-0.5,0.7c-0.1,0.3-0.2,0.5-0.3,0.8
			c-0.2,0.5,0,1.2,0.3,1.6c0.2,0.2,0.4,0.4,0.7,0.5l0.8,0.4l0.1,0l0,0.1l0,0l0,0.1l-0.1,0l-0.8-0.4c-0.3-0.1-0.5-0.3-0.8-0.3
			c-0.5-0.1-1.1,0.2-1.4,0.7c-0.1,0.2-0.2,0.5-0.3,0.8c-0.1,0.3-0.2,0.5-0.2,0.8c0,0.5,0.3,1,0.7,1.3l1.5,0.8l-1.7-0.4
			c-0.4-0.1-0.8,0-1.1,0.3c-0.1,0.1-0.3,0.3-0.3,0.4c0,0.1-0.1,0.2-0.1,0.3L35,77.1c-0.1,0.2-0.1,0.4-0.2,0.6c0,0.2,0,0.4,0.1,0.5
			c0.1,0.3,0.4,0.6,0.7,0.8l2.8,1.3l-3.1-0.5c-0.4-0.1-0.7,0.1-1,0.3c-0.1,0.1-0.2,0.3-0.3,0.5c-0.1,0.2-0.2,0.5-0.3,0.7
			c-0.1,0.3,0,0.7,0.1,1c0.1,0.1,0.2,0.3,0.3,0.3c0,0,0.1,0.1,0.1,0.1l0.1,0.1l0.3,0.2l2.8,1.2l1.4,0.6l0.7,0.3l0.3,0.2
			c0.1,0,0.1,0,0.2,0.1l0.2,0.1l3.8,1.8l1.9,0.9c0.3,0.2,0.6,0.3,0.9,0.4c0.3,0.1,0.6,0.1,0.8,0.1c1.1,0,2.2-0.7,2.8-1.7l1.7-3.8
			l1.7-3.8c0.5-1.2,0.3-2.6-0.4-3.7c-0.4-0.5-0.9-1-1.5-1.3l-1.9-1c-1.2-0.6-2.5-1.3-3.8-1.9l0,0l0,0c-0.3-0.5-0.9-0.6-1.4-0.9
			l-1.6-0.8L40.3,68.1z"/>
	</g>
	<g>
		<path fill="#008D36" d="M53.2,74.5c0,0-0.9-5.4-1.9-6.4c-1-0.9-2.6,0-2.6,0L45,70.3L53.2,74.5z"/>
		<path fill="#1D1D1B" d="M53.2,74.5l-1.1-3.2c-0.2-0.5-0.4-1.1-0.6-1.6c-0.1-0.2-0.2-0.5-0.4-0.7c-0.1-0.1-0.1-0.2-0.2-0.3
			c0,0-0.1,0-0.1-0.1c0,0,0,0,0,0l0,0l-0.1-0.1c-0.1-0.1-0.1-0.1-0.2-0.1c-0.1,0-0.2,0-0.3,0c-0.2,0-0.4,0-0.6,0.1
			c-0.2,0.1-0.4,0.2-0.6,0.3l-0.7,0.4c-1,0.6-2,1.1-3,1.7l0-1.3c0.7,0.4,1.3,0.7,2,1.1c0.7,0.4,1.3,0.8,2,1.2
			C50.6,72.8,51.9,73.6,53.2,74.5z M53.2,74.5c-1.5-0.5-2.9-1-4.3-1.6c-0.7-0.3-1.4-0.6-2.1-0.9c-0.7-0.3-1.4-0.6-2.1-1l-1.2-0.6
			l1.2-0.7c1-0.6,2-1.2,3-1.7l0.7-0.4c0.3-0.2,0.6-0.3,1-0.4c0.3-0.1,0.7-0.1,1.1-0.1c0.2,0,0.4,0.1,0.6,0.1c0.2,0,0.5,0.2,0.5,0.3
			l0.1,0.1l0,0c0.1,0.1,0.1,0.1,0.1,0.1c0.1,0.1,0.1,0.2,0.2,0.2c0.1,0.2,0.2,0.3,0.2,0.5c0.1,0.3,0.2,0.6,0.3,0.9
			c0.2,0.6,0.3,1.2,0.4,1.7C53.1,72.2,53.2,73.4,53.2,74.5z"/>
	</g>
</g>
</svg>
