<?xml version="1.0" encoding="utf-8"?>
<!-- Generator: Adobe Illustrator 18.1.0, SVG Export Plug-In . SVG Version: 6.00 Build 0)  -->
<svg version="1.1" id="Calque_1" xmlns="http://www.w3.org/2000/svg" xmlns:xlink="http://www.w3.org/1999/xlink" x="0px" y="0px"
	 viewBox="0 0 256 256" enable-background="new 0 0 256 256" xml:space="preserve">
<symbol  id="Herbe_1" viewBox="-14.5 -22 28.9 44.1">
	<g>
		<g>
			<path fill="#69AF2B" d="M-1-18.7c0,0,4.7,15.6-2.1,40.7C9.3-0.3,1.5-13.9-1-18.7z"/>
			<path fill="#009735" d="M-3.3-15.6c0,0,1.3,11.6-11.1,20.5c10.8-11.4,9-21,10.3-26.9L-3.3-15.6z"/>
			<path fill="#007D2B" d="M5.3-17.8c0,0-2.4,11.6,5.7,17C9.3-4.8,6.8-10.2,5.3-17.8z"/>
			<path fill="#006A2C" d="M7.7-18.1c0,0-0.2,7.9,4.9,9.7C13.6-7.5,11.1-13,7.7-18.1z"/>
			<path fill="#007D2B" d="M-3.7-7c0,0,3.8,7.9-7.1,21.7C-8.1,8.6-4.8,0.8-3.7-7z"/>
		</g>
		<path fill="#009735" d="M5.2-3.7c0,0,0.5,19.4,9.3,22.3C9.4,10.3,8.1,5.8,5.2-3.7z"/>
	</g>
</symbol>
<rect fill="#A7B867" width="256" height="256"/>
<circle fill="#0071BC" cx="69" cy="142" r="19"/>
<path fill="#0071BC" d="M185.5,183h-95c-11.8,0-21.5-9.7-21.5-21.5v0c0-11.8,9.7-21.5,21.5-21.5h95c11.8,0,21.5,9.7,21.5,21.5v0
	C207,173.3,197.3,183,185.5,183z"/>
<path fill="#0071BC" d="M129.5,194h-95c-11.8,0-21.5-9.7-21.5-21.5v0c0-11.8,9.7-21.5,21.5-21.5h95c11.8,0,21.5,9.7,21.5,21.5v0
	C151,184.3,141.3,194,129.5,194z"/>
<path fill="#0071BC" d="M174.5,219h-95c-11.8,0-21.5-9.7-21.5-21.5v0c0-11.8,9.7-21.5,21.5-21.5h95c11.8,0,21.5,9.7,21.5,21.5v0
	C196,209.3,186.3,219,174.5,219z"/>
<path fill="#0071BC" d="M176.5,161h-95c-11.8,0-21.5-9.7-21.5-21.5v0c0-11.8,9.7-21.5,21.5-21.5h95c11.8,0,21.5,9.7,21.5,21.5v0
	C198,151.3,188.3,161,176.5,161z"/>
<path fill="#0071BC" d="M224.5,168h-95c-11.8,0-21.5-9.7-21.5-21.5v0c0-11.8,9.7-21.5,21.5-21.5h95c11.8,0,21.5,9.7,21.5,21.5v0
	C246,158.3,236.3,168,224.5,168z"/>
<path fill="#0071BC" d="M214.5,199h-95c-11.8,0-21.5-9.7-21.5-21.5v0c0-11.8,9.7-21.5,21.5-21.5h95c11.8,0,21.5,9.7,21.5,21.5v0
	C236,189.3,226.3,199,214.5,199z"/>
<path fill="#29ABE2" d="M102,193c0,0,0.3-10,12-10s113,0,113,0s-0.7,9.5-9.5,9.5S102,193,102,193z"/>
<path fill="#29ABE2" d="M58,139c0,0,0.3-10,12-10s113,0,113,0s-0.7,9.5-9.5,9.5S58,139,58,139z"/>
<use xlink:href="#Herbe_1"  width="28.9" height="44.1" x="-14.5" y="-22" transform="matrix(1.5219 0 0 -1.5219 62.4572 79.5)" overflow="visible"/>
<use xlink:href="#Herbe_1"  width="28.9" height="44.1" x="-14.5" y="-22" transform="matrix(1.5219 0 0 -1.5219 28.0051 111.4658)" overflow="visible"/>
<use xlink:href="#Herbe_1"  width="28.9" height="44.1" x="-14.5" y="-22" transform="matrix(1.5219 0 0 -1.5219 207.9949 87.5342)" overflow="visible"/>
</svg>
