<?xml version="1.0" encoding="utf-8"?>
<!-- Generator: Adobe Illustrator 18.1.0, SVG Export Plug-In . SVG Version: 6.00 Build 0)  -->
<svg version="1.1" id="Calque_1" xmlns="http://www.w3.org/2000/svg" xmlns:xlink="http://www.w3.org/1999/xlink" x="0px" y="0px"
	 viewBox="0 0 256 256" enable-background="new 0 0 256 256" xml:space="preserve">
<polygon fill="#242518" points="84.3,170.5 74.4,234 163.5,234 163.5,164.9 143.8,154.9 "/>
<path fill="#F4A06E" d="M125.5,242.4h-0.9h-7.2V234h-0.6h-15.9v14.2v6.8h15.9h0.6h13h1.2v-6.8C131.6,245,128.9,242.4,125.5,242.4z"
	/>
<path fill="#F4A06E" d="M156.2,242.4h-8.2V234h-16.5v14.2v6.8h16.5h14.2v-6.8C162.2,245,159.5,242.4,156.2,242.4z"/>
<rect x="100.9" y="205.6" fill="#43281A" width="23.5" height="28.4"/>
<rect x="130.4" y="205.6" fill="#43281A" width="23.5" height="28.4"/>
<rect x="116.2" y="205.6" fill="#43281A" width="23.5" height="18.6"/>
<rect x="91" y="181.3" fill="#7E4D1F" width="33.4" height="42.8"/>
<rect x="124.4" y="154.9" fill="#EDECEC" width="28.7" height="50.7"/>
<rect x="153.1" y="171.3" fill="#7C4B20" width="10.4" height="52.8"/>
<path fill="#F5A56D" d="M111.1,205.6c0,7.9-3.6,12.6-10.1,12.6c-6.7,0-9.9-4.7-9.9-12.6H111.1z"/>
<path fill="#F4A366" d="M163.5,206.1c0,7.3-4.2,12.1-10.4,12.1v-12.1H163.5z"/>
<path fill="#524B2F" d="M81.4,189.3l2.9-18.8c0,0-4.5-0.2-9.5-6.4S70,153,70,153v-23h84v24.5c0,0,2.5-0.8,5.7,2.4s3.8,6.9,3.8,6.9
	v21.4c0,0-6-1.6-12.4-10c-6.4-8.4-7.1-15.6-7.1-15.6s-1.6,11.9-10,19.9c-8.4,8-21.2,9.8-21.2,9.8H81.4z"/>
<path fill="#B77C27" d="M111.2,140.8h43.3c0,0,4.3-2.3,4.9-6.7c0.6-4.5-3-7.7-3-7.7s12.3-4.1,10.9-14.8
	c-1.6-11.7-12.7-13.4-12.7-13.4s0.1-2.9-3.2-5.7c-3.4-3.1-6.4-3.2-6.4-3.2h-29.1c0,0-3.9,0.7-6.4,2.9s-3.2,5.4-3.2,5.4
	s-5.5,1.7-8.7,4.8c-3.3,3.2-3.9,7.5-3.9,7.5v20.3c0,0-0.1,4.6,3.4,7.7c3.5,3.2,6.4,3,6.4,3H111.2z"/>
<path fill="#F4A06E" d="M107.4,140.8h14.5c0,0,5.1,0.1,8.2,4c3.1,3.9,2.3,9.3,2.3,9.3h11.4c0,0,4.1-0.8,6.7-3.8s3.6-8.3,3.6-8.3
	l0.5-20.8l-7.6,3.9v-8.8c0,0-3.2,4.7-8.4,7.5c-5.2,2.8-11.8,3.4-11.8,3.4l-9.9,8v-5.1c0,0-0.5-2.4-2.5-3.8c-2-1.4-3.8-0.7-3.8-0.7
	h-8.8v7.9c0,0,0.5,2.5,2.4,5C106,140.9,107.4,140.8,107.4,140.8z"/>
<polygon opacity="0.3" fill="#F05A24" points="45,0 6,0 0,0 0,6 0,45 6,45 6,6 45,6 "/>
<polygon opacity="0.3" fill="#F05A24" points="0,211 0,250 0,256 6,256 45,256 45,250 6,250 6,211 "/>
<polygon opacity="0.3" fill="#F05A24" points="211,256 250,256 256,256 256,250 256,211 250,211 250,250 211,250 "/>
<polygon opacity="0.3" fill="#F05A24" points="256,45 256,6 256,0 250,0 211,0 211,6 250,6 250,45 "/>
</svg>
