<?xml version="1.0" encoding="utf-8"?>
<!-- Generator: Adobe Illustrator 18.1.0, SVG Export Plug-In . SVG Version: 6.00 Build 0)  -->
<svg version="1.1" id="Calque_1" xmlns="http://www.w3.org/2000/svg" xmlns:xlink="http://www.w3.org/1999/xlink" x="0px" y="0px"
	 viewBox="0 0 256 256" enable-background="new 0 0 256 256" xml:space="preserve">
<polygon fill="#D6D4D6" points="213.9,32.4 223.6,23.7 223.6,38.6 220,40.2 "/>
<linearGradient id="SVGID_1_" gradientUnits="userSpaceOnUse" x1="201.8691" y1="142.2159" x2="235.335" y2="142.2159">
	<stop  offset="0" style="stop-color:#E48976"/>
	<stop  offset="0.5112" style="stop-color:#A93C17"/>
	<stop  offset="1" style="stop-color:#611C01"/>
</linearGradient>
<path fill="url(#SVGID_1_)" d="M229.8,43.1l-6.2,14.6v-9l9-20.3h-5.8L222,39.1l-1.7-6.8l-6.3,0.1l-3.9,8.9l-1.6-2.9h-6.5l15,26.8
	V256h6.8V70.2l11.7-27.1H229.8z M216.4,54.2l-3.6-6.3l4.1-8.7l1.3,3.1v11.9H216.4z"/>
<path fill="#303130" d="M70.5,104.4l-18.4,31.5c0,0-3.2,4.1-4.6,13c-0.6,3.9-0.4,8.9-0.4,14.6c0,23.7,0,92.5,0,92.5h38v-31.4
	l6-120.3H70.5z"/>
<path fill="#638BBF" d="M67.8,72.1h136l-30.6-11.3c0,0,1.8-16-9.2-32.1c-9.7-14.2-30.3-28.5-57.4-28.5c-57.8,0-32.1,0-32.1,0
	s3.5,9.9,13,17.3S109,27,109,27v31.7L67.8,72.1z"/>
<path fill="#161618" d="M67.8,72.1c0,0-2.8,13.2,1.2,18.8c4.1,5.6,8.3,11.6,16.7,12.9s89.7,0,89.7,0s13.4,1.4,19-3.2
	s11.6-11.4,10.9-19.2s-1.6-9.3-1.6-9.3H67.8z"/>
<path fill="#A2A0A1" d="M114.7,116.9c0,0-2.3,8.1-11.3,8.1s-9.5-9.9-9.5-9.9s0.2-10.8,8.6-10.8s-15.5,0-15.5,0V86.2
	c0,0,0-14.1,12.5-14.1c4.3,0,14.3,0,25.7,0c22,0,49.1,0,49.1,0v14.8c0,0-10.6-1.8-10.6-9h-38.8c0,0-0.2,10.9-10.9,10.9L114.7,116.9z
	"/>
<path fill="#E99D77" d="M134.2,90.4h29.6V72.1h-38.6v9.2C125.2,81.3,126,90.4,134.2,90.4z"/>
<path fill="#5D5D5C" d="M216.8,126.4l-14.3-14.2l-8.3,8.2l-14.7-14.1c0,0-2.3-0.9-5.1-0.9s-83.3-1-83.3-1L59,128.1c0,0-12,12-12,25
	c0,17,9.5,34.5,28.5,34.5c23.2,0,29.2-9.2,29.2-9.2l-19.7,46.1V256H216c0,0-18.9-2.5-29.1-11.8c-10.2-9.3-12.5-26.1-12.5-26.1v-33.3
	c0,0-0.2-5-3.3-8.3c-3.1-3.3-8.3-3.9-8.3-3.9s5.6-0.3,9-5.3s2.6-11.6,2.6-11.6s0.5,18.6,12.5,31.9c12,13.3,28.9,13.9,28.9,13.9
	L216.8,126.4z"/>
<path fill="#5D5D5C" d="M216.8,256"/>
<path fill="#332F2D" d="M127,155.8v-51l-56.5-0.4c0,0,0.9,20.6,16.5,35.4C104.4,156.3,127,155.8,127,155.8z"/>
<path fill="#84807D" d="M108.6,224.4l7.2-45.9h-10.9c0,0-2.9,3.5-8.7,5.8c-5.8,2.4-9.2,2.5-9.2,2.5l-1.9,37.8L108.6,224.4z"/>
<polygon fill="#161618" points="119.7,155.8 127,155.8 127,224.6 108.8,224.6 "/>
<path fill="#EFEFEE" d="M114.5,130.6c0,0,12.5-0.9,12.5-9.2s0,34.3,0,34.3s4.7,0,7.8-3c3-3,4.2-7.4,4.2-7.4v10.4c0,0,4.6-0.3,7.9-3
	c3.3-2.7,4.2-6.9,4.2-6.9v9.9c0,0,4.3-0.1,8.6-3.5c4.4-3.5,4.1-6.5,4.1-6.5s0.9,4.6,4.1,7.6s6.5,2.5,6.5,2.5v-51.9
	c0,0-0.1-4.8-2.8-9.2c-2.6-4.2-7.8-4.2-7.8-4.2h-28.9c0,0-3,0.7-6.5-2.2c-3.3-2.7-3.2-10.3-3.2-10.3s-1.2,6.7-4.5,8.9
	c-3.3,2.2-6.6,2-6.6,2L114.5,130.6z"/>
<path fill="#D5D6D8" d="M134.9,107c0,0,4.4-0.3,7.6-3.9c3.2-3.5,3.5-5.8,3.5-5.8v-6.9h6.3v6.9c0,0,2,4.4,4.8,6.8
	c2.8,2.4,6.7,2.9,6.7,2.9V87.3c0,0,0.4-1.1-0.7-2.5c-1.1-1.4-1.8-0.7-1.8-0.7s-1.2,2.6-4.8,2.6c-3.5,0-6.3-2.1-6.3-5.5h-9.3
	c0,0-6,1.2-6,8.3C134.9,96.6,134.9,107,134.9,107z"/>
<path fill="#312D2B" d="M202.5,112.2l19.3,19.3c0,0,15.1-12.4,4.2-22.9C213.5,96.6,202.5,112.2,202.5,112.2z"/>
<path fill="#E9996C" d="M229,104.4h-7.9c0,0-5.2,1.8-5.2,5.2c0,3.4,0,7.3,0,7.3s0.7,6.3,6.6,6.3s7.5-5.5,7.5-5.5v-13.4L229,104.4z"
	/>
<polygon opacity="0.3" fill="#FF0000" points="45,0 6,0 0,0 0,6 0,45 6,45 6,6 45,6 "/>
<polygon opacity="0.3" fill="#FF0000" points="0,211 0,250 0,256 6,256 45,256 45,250 6,250 6,211 "/>
<polygon opacity="0.3" fill="#FF0000" points="211,256 250,256 256,256 256,250 256,211 250,211 250,250 211,250 "/>
<polygon opacity="0.3" fill="#FF0000" points="256,45 256,6 256,0 250,0 211,0 211,6 250,6 250,45 "/>
</svg>
