<?xml version="1.0" encoding="utf-8"?>
<!-- Generator: Adobe Illustrator 18.1.0, SVG Export Plug-In . SVG Version: 6.00 Build 0)  -->
<svg version="1.1" id="Calque_1" xmlns="http://www.w3.org/2000/svg" xmlns:xlink="http://www.w3.org/1999/xlink" x="0px" y="0px"
	 viewBox="0 0 256 256" enable-background="new 0 0 256 256" xml:space="preserve">
<rect fill="#A6B767" width="256" height="256"/>
<ellipse opacity="0.3" cx="132" cy="196" rx="118" ry="21"/>
<polygon opacity="0.3" fill="#FBED21" points="126,15 138.7,60.4 175.6,22.7 161.8,67.9 216.6,44.4 178.8,81.7 242,76.4 186.6,99.2 
	247.3,113.2 184,117.6 231.6,148.3 171.3,133.6 197.7,175.8 150.8,144.5 151.4,190.8 126,148.3 100.6,190.8 101.2,144.5 54.3,175.8 
	80.7,133.6 20.4,148.3 68,117.6 4.7,113.2 65.4,99.2 10,76.4 73.2,81.7 35.4,44.4 90.2,67.9 76.4,22.7 113.3,60.4 "/>
<polygon opacity="0.3" fill="#FBED21" points="126,30.9 136.4,68.1 166.6,37.2 155.3,74.3 200.2,55 169.2,85.5 220.9,81.2 
	175.6,99.9 225.3,111.3 173.5,114.9 212.4,140.1 163.1,128 184.7,162.6 146.3,136.9 146.8,174.9 126,140.1 105.2,174.9 105.7,136.9 
	67.3,162.6 88.9,128 39.6,140.1 78.5,114.9 26.7,111.3 76.4,99.9 31.1,81.2 82.8,85.5 51.8,55 96.7,74.3 85.4,37.2 115.6,68.1 "/>
<polygon opacity="0.3" fill="#FBED21" points="126,49.8 133.7,77.2 156,54.4 147.6,81.8 180.7,67.6 157.9,90.1 196.1,86.9 
	162.6,100.7 199.3,109.1 161,111.8 189.8,130.3 153.4,121.5 169.3,146.9 141,128 141.3,156 126,130.3 110.7,156 111,128 82.7,146.9 
	98.6,121.5 62.2,130.3 91,111.8 52.7,109.1 89.4,100.7 55.9,86.9 94.1,90.1 71.3,67.6 104.4,81.8 96,54.4 118.3,77.2 "/>
<g>
	<g>
		<g>
			<path fill="#F6921E" d="M67.4,162.3L67.4,162.3c-18.3,0-35-11.5-41.6-28.5c-4.3-11.1-4-23.2,0.8-34.1
				c4.8-10.9,13.6-19.2,24.7-23.5c5.2-2,10.6-3,16.1-3c18.3,0,35,11.4,41.6,28.5c8.9,22.9-2.6,48.8-25.5,57.6
				C78.4,161.3,73,162.3,67.4,162.3z M67.4,93c-3,0-6.1,0.6-8.9,1.7c-6.2,2.4-11,7-13.7,13.1s-2.8,12.8-0.4,18.9
				c3.7,9.5,12.9,15.8,23.1,15.8c3,0,6.1-0.6,8.9-1.7c12.7-4.9,19.1-19.3,14.2-32C86.9,99.3,77.6,93,67.4,93z"/>
		</g>
		<g>
			<path fill="#F6921E" d="M99.5,116c-4,0-7.8-2.4-9.4-6.4c-2-5.2,0.6-11,5.7-13L213.6,51c2.5-1,5.2-0.9,7.7,0.2
				c2.4,1.1,4.3,3.1,5.3,5.6l15.5,40.1c2,5.2-0.6,11-5.7,13c-5.2,2-11-0.6-13-5.7l-11.9-30.8l-108.3,41.9
				C101.9,115.7,100.7,116,99.5,116z"/>
		</g>
		<g>
			<path fill="#F6921E" d="M202.1,107c-4,0-7.8-2.4-9.4-6.4l-10.4-26.8c-2-5.2,0.6-11,5.7-13c5.2-2,11,0.6,13,5.7l10.4,26.8
				c2,5.2-0.6,11-5.7,13C204.6,106.8,203.3,107,202.1,107z"/>
		</g>
		<g>
			<path fill="#F6921E" d="M178.1,116.3c-4,0-7.8-2.4-9.4-6.4l-10.4-26.8c-2-5.2,0.6-11,5.7-13c5.2-2,11,0.6,13,5.7l10.4,26.8
				c2,5.2-0.6,11-5.7,13C180.5,116.1,179.3,116.3,178.1,116.3z"/>
		</g>
	</g>
	<g>
		<g>
			<path fill="#FFFF00" d="M62.9,158.8C62.9,158.8,62.9,158.8,62.9,158.8c-18.3,0-35-11.4-41.6-28.5c-8.9-22.9,2.6-48.8,25.5-57.6
				c5.2-2,10.6-3,16.1-3c18.3,0,35,11.4,41.6,28.5c8.9,22.9-2.6,48.8-25.5,57.6C73.8,157.8,68.4,158.8,62.9,158.8z M62.9,89.4
				c-3,0-6.1,0.6-8.9,1.7c-12.7,4.9-19.1,19.3-14.2,32c3.7,9.5,12.9,15.8,23.1,15.8c3,0,6.1-0.6,8.9-1.7c12.7-4.9,19.1-19.3,14.2-32
				C82.3,95.8,73,89.4,62.9,89.4z"/>
		</g>
		<g>
			<path fill="#FFFF00" d="M94.7,111.6c-4,0-7.8-2.4-9.4-6.4c-2-5.2,0.6-11,5.7-13l117.7-45.6c2.5-1,5.2-0.9,7.7,0.2
				c2.4,1.1,4.3,3.1,5.3,5.6l16,41.5c2,5.2-0.6,11-5.7,13c-5.2,2-11-0.6-13-5.7L206.7,69L98.4,111C97.2,111.4,95.9,111.6,94.7,111.6
				z"/>
		</g>
		<g>
			<path fill="#FFFF00" d="M197.4,102.7c-4,0-7.8-2.4-9.4-6.4l-10.4-26.8c-2-5.2,0.6-11,5.7-13c5.2-2,11,0.6,13,5.7L206.8,89
				c2,5.2-0.6,11-5.7,13C199.8,102.5,198.6,102.7,197.4,102.7z"/>
		</g>
		<g>
			<path fill="#FFFF00" d="M173.3,112c-4,0-7.8-2.4-9.4-6.4l-9.8-25.4c-2-5.2,0.6-11,5.7-13c5.2-2,11,0.6,13,5.7l9.8,25.4
				c2,5.2-0.6,11-5.7,13C175.7,111.8,174.5,112,173.3,112z"/>
		</g>
	</g>
</g>
</svg>
