<?xml version="1.0" encoding="utf-8"?>
<!-- Generator: Adobe Illustrator 18.1.0, SVG Export Plug-In . SVG Version: 6.00 Build 0)  -->
<svg version="1.1" id="Calque_1" xmlns="http://www.w3.org/2000/svg" xmlns:xlink="http://www.w3.org/1999/xlink" x="0px" y="0px"
	 viewBox="0 0 256 256" enable-background="new 0 0 256 256" xml:space="preserve">
<rect fill="#A7B867" width="256" height="256"/>
<g>
	<linearGradient id="SVGID_1_" gradientUnits="userSpaceOnUse" x1="124.5412" y1="119.6416" x2="239.3596" y2="119.6416">
		<stop  offset="0" style="stop-color:#D3955F"/>
		<stop  offset="0.4888" style="stop-color:#B16F2E"/>
		<stop  offset="1" style="stop-color:#6E4518"/>
	</linearGradient>
	<path fill="url(#SVGID_1_)" d="M248.1,173.8c-10.4-14.3-9.9-35-16.7-51.8c-4.9-12.1-13.6-21.8-18.9-33.8c-4-9.1-6.1-19.5-11.4-27.8
		c-1.7-2.6-4.1-5.1-6.9-4.6c-1.2,0.2-2.3,1.1-3.3,1.8c-15.7,10.3-37-3.4-53.1,6.2c-5.9,3.5-10.2,9.8-14.3,15.8
		c-6,8.9-12,17.9-17.2,27.5c-5.4,10.1-9.7,21-14,31.8c-4,10.1-8.1,20.2-12.1,30.3c-0.8,2-1.5,4.5-0.3,6.2c1.1,1.6,3.2,1.5,4.9,1.3
		c51.3-6,103.2,12.7,154.3,4.9c3.9-0.6,8.2-1.7,10.1-5.6L248.1,173.8z"/>
</g>
<radialGradient id="SVGID_2_" cx="3898.5317" cy="193.8321" r="56.2131" gradientTransform="matrix(-1.1359 0 0 1.2956 4629.9722 -173.4762)" gradientUnits="userSpaceOnUse">
	<stop  offset="0" style="stop-color:#D7E4F6"/>
	<stop  offset="0.5" style="stop-color:#BBD2EE"/>
	<stop  offset="0.5583" style="stop-color:#B7D0ED"/>
	<stop  offset="1" style="stop-color:#A0C2E7"/>
</radialGradient>
<path fill="url(#SVGID_2_)" d="M208.6,88.6c3.4-0.7,5.6-4.6,5.8-8.5c0.2-3.9-1-7.7-2.4-11.2c-8.4-21.3-21.4-40.1-37.6-54.4
	c-1.5-1.3-3.1-2.6-5-3c-2.6-0.4-5.2,1.2-7.4,2.9c-15.2,11.4-27.9,27.1-36.6,45.2c-4.7,9.8-8.3,20.4-9.4,31.5
	c8.3,2.4,17.8-1.6,22.7-9.6c0.7-1.2,1.7-2.7,2.9-2.6c0.9,0.1,1.6,0.9,2.2,1.7c3.4,4.5,6.7,8.9,10.1,13.4c7.6-1.1,5.1-18.7,12.7-20
	c4.7-0.8,7.4,5.6,9.4,10.5c5,12,15,21.1,26.4,23.9C207.6,103.9,210.2,95.8,208.6,88.6z"/>
<g>
	<linearGradient id="SVGID_3_" gradientUnits="userSpaceOnUse" x1="56.2901" y1="89.3566" x2="140.0341" y2="89.3566">
		<stop  offset="0" style="stop-color:#D3955F"/>
		<stop  offset="0.4888" style="stop-color:#B16F2E"/>
		<stop  offset="1" style="stop-color:#6E4518"/>
	</linearGradient>
	<path fill="url(#SVGID_3_)" d="M146.4,128.8c-7.6-10.4-7.2-25.5-12.2-37.8c-3.6-8.8-9.9-15.9-13.8-24.6c-2.9-6.7-4.4-14.2-8.3-20.2
		c-1.2-1.9-3-3.7-5-3.3c-0.9,0.2-1.6,0.8-2.4,1.3c-11.4,7.5-27-2.5-38.7,4.5c-4.3,2.6-7.4,7.1-10.4,11.5
		c-4.4,6.5-8.8,13.1-12.5,20.1c-3.9,7.4-7.1,15.3-10.2,23.2c-2.9,7.4-5.9,14.7-8.8,22.1c-0.6,1.4-1.1,3.3-0.3,4.5
		c0.8,1.1,2.3,1.1,3.6,0.9c37.4-4.4,75.3,9.2,112.5,3.6c2.8-0.4,6-1.2,7.4-4.1L146.4,128.8z"/>
</g>
<radialGradient id="SVGID_4_" cx="3977.0312" cy="179.2273" r="40.9996" gradientTransform="matrix(-1.1359 0 0 1.2956 4629.9722 -173.4762)" gradientUnits="userSpaceOnUse">
	<stop  offset="0" style="stop-color:#D7E4F6"/>
	<stop  offset="0.5" style="stop-color:#BBD2EE"/>
	<stop  offset="0.5583" style="stop-color:#B7D0ED"/>
	<stop  offset="1" style="stop-color:#A0C2E7"/>
</radialGradient>
<path fill="url(#SVGID_4_)" d="M117.6,66.7c2.4-0.5,4.1-3.4,4.3-6.2c0.2-2.8-0.8-5.6-1.8-8.2c-6.1-15.5-15.6-29.3-27.4-39.7
	c-1.1-1-2.3-1.9-3.6-2.2c-1.9-0.3-3.8,0.9-5.4,2.1c-11.1,8.3-20.3,19.7-26.7,33c-3.4,7.1-6,14.9-6.9,22.9c6.1,1.8,13-1.2,16.6-7
	c0.5-0.9,1.2-1.9,2.1-1.9c0.7,0.1,1.2,0.7,1.6,1.2c2.5,3.2,4.9,6.5,7.4,9.7c5.6-0.8,3.7-13.6,9.3-14.6c3.4-0.6,5.4,4.1,6.8,7.6
	c3.6,8.8,11,15.4,19.3,17.4C116.9,77.9,118.8,72,117.6,66.7z"/>
<g>
	<linearGradient id="SVGID_5_" gradientUnits="userSpaceOnUse" x1="6.7757" y1="164.566" x2="237.0426" y2="164.566">
		<stop  offset="0" style="stop-color:#D3955F"/>
		<stop  offset="0.4888" style="stop-color:#B16F2E"/>
		<stop  offset="1" style="stop-color:#6E4518"/>
	</linearGradient>
	<path fill="url(#SVGID_5_)" d="M8.3,229.1c14-17,13.4-41.7,22.7-61.7c6.7-14.4,18.4-26,25.5-40.2C62,116.2,64.8,103.9,72,94
		c2.3-3.1,5.6-6.1,9.4-5.4c1.6,0.3,3,1.3,4.5,2.1c21.2,12.3,50.2-4,71.9,7.3c8,4.2,13.8,11.6,19.3,18.8
		c8.1,10.6,16.3,21.3,23.2,32.8c7.3,12.1,13.2,25,19,37.8c5.5,12,10.9,24.1,16.4,36.1c1.1,2.4,2.1,5.3,0.5,7.3
		c-1.5,1.9-4.3,1.8-6.7,1.5c-69.5-7.2-139.8,15.1-209,5.9c-5.2-0.7-11.1-2-13.7-6.6L8.3,229.1z"/>
</g>
<radialGradient id="SVGID_6_" cx="83.867" cy="139.612" r="76.1557" gradientTransform="matrix(1.1359 0 0 1.1392 -20.23 -33.4885)" gradientUnits="userSpaceOnUse">
	<stop  offset="0" style="stop-color:#D7E4F6"/>
	<stop  offset="0.5" style="stop-color:#BBD2EE"/>
	<stop  offset="0.5583" style="stop-color:#B7D0ED"/>
	<stop  offset="1" style="stop-color:#A0C2E7"/>
</radialGradient>
<path fill="url(#SVGID_6_)" d="M65.8,138.6c-4.5-0.8-7.6-5.5-7.9-10.2c-0.3-4.6,1.4-9.1,3.3-13.3c11.4-25.3,29-47.8,50.9-64.8
	c2-1.6,4.2-3.2,6.7-3.5c3.6-0.5,7,1.4,10.1,3.4c20.6,13.5,37.8,32.2,49.6,53.9c6.4,11.7,11.2,24.3,12.8,37.5
	c-11.3,2.9-24.1-1.9-30.8-11.5c-1-1.4-2.2-3.2-4-3c-1.2,0.1-2.1,1.1-2.9,2c-4.6,5.3-9.1,10.6-13.7,15.9
	c-10.3-1.3-6.9-22.2-17.2-23.8c-6.3-0.9-10,6.7-12.7,12.5c-6.7,14.3-20.3,25.1-35.8,28.4C67.1,156.9,63.7,147.2,65.8,138.6z"/>
</svg>
