<?xml version="1.0" encoding="utf-8"?>
<!-- Generator: Adobe Illustrator 18.1.0, SVG Export Plug-In . SVG Version: 6.00 Build 0)  -->
<svg version="1.1" id="Calque_1" xmlns="http://www.w3.org/2000/svg" xmlns:xlink="http://www.w3.org/1999/xlink" x="0px" y="0px"
	 viewBox="0 0 256 256" enable-background="new 0 0 256 256" xml:space="preserve">
<symbol  id="Herbe_3" viewBox="-17.5 -30.3 35 60.4">
	<g>
		<g>
			<path fill="none" d="M-7.8,30.1c3.3-4.7,7.2-9.1,10-14.4C9.3,2.7,8-11.7,4.4-25.9"/>
			<path fill="#158C2F" d="M-7.8,30.1C-5,26-2.6,22,0,17.7c2.6-4.3,5-8.6,5.9-13.6c1.8-9.8-1-22.7-3.5-32.3
				c-0.3-1.1,2.5,0.8,2.8,1.9C6.1-22.3,9.6-9.4,7,3.5C4.8,13.8-1.8,21.7-7.8,30.1C-7.8,30.1-7.9,30.1-7.8,30.1L-7.8,30.1z"/>
		</g>
		<g>
			<path fill="none" d="M-3.4-25.4c5.3,24.6-13.5,11.7-13.9,38"/>
			<path fill="#86BC25" d="M-2.2-25.5c1.4,7,1.7,13.7-4.2,18.5c-2.2,1.8-4.7,2.8-6.5,5.1c-3.2,4-3.9,9.4-4.1,14.4
				c-0.2,4.4-0.6,4.4-0.5,0c0-4.4,0.5-8.9,2.4-13C-13.9-3-11.9-5-9.9-7c1.8-1.8,3.9-3.1,5.1-5.4c2-3.8,1-8.9,0.2-12.9
				C-4.8-26.8-4.2-28.7-2.2-25.5L-2.2-25.5z"/>
		</g>
		<g>
			<path fill="none" d="M-6.8-26.7C-9-12.8-12,7.7-6.1,20.4"/>
			<path fill="#13A538" d="M-6.2-24.9C-7.4-17.2-8.3-11.2-9-3.4C-9.6,4.5-9.2,13-6,20.3c0.1,0.2-0.2,0.3-0.3,0.1
				C-9.6,13.2-9.9,5.1-10-2.7c0-8.1,1.3-16.2,2.6-24.2c0.1-0.9,2.1-0.7,2,0.1L-6.2-24.9z"/>
		</g>
		<g>
			<path fill="none" d="M10.6-26.1c-5.9,16.3,4.3,24,6.8,29.2"/>
			<path fill="#13A538" d="M11.2-25.8C9.1-19.6,8.7-13,11.4-6.9c1.6,3.6,4.4,6.5,6.1,10c0.1,0.2-0.2,0.3-0.3,0.1
				c-1.9-3.8-5.1-6.9-6.9-10.8c-3-6.1-3.2-11.4-1-17.7C9.6-26.2,11.5-26.6,11.2-25.8L11.2-25.8z"/>
		</g>
		<g>
			<path fill="none" d="M-0.5-28.7c-2.2,13.7,8.4,18,1.4,41"/>
			<path fill="#13A538" d="M1-28c-0.9,6.1,0.3,10.7,1.6,16.5C4.4-3.4,3,6.8,0.6,14.6c-0.1,0.2,0.1-2.1,0.1-2.3
				C3.1,4.1,3.8-3.9,1.2-12.1c-1.7-5.5-2.6-10.3-1.7-16.1c0.1-0.9,0.4-2.8,0.3-2L1-28z"/>
		</g>
	</g>
</symbol>
<rect fill="#A7B867" width="256" height="256"/>
<radialGradient id="SVGID_1_" cx="53.3433" cy="32.9759" r="104.9492" gradientUnits="userSpaceOnUse">
	<stop  offset="0" style="stop-color:#999998"/>
	<stop  offset="3.581571e-02" style="stop-color:#8E8E8D"/>
	<stop  offset="0.1294" style="stop-color:#777776"/>
	<stop  offset="0.2302" style="stop-color:#676766"/>
	<stop  offset="0.3424" style="stop-color:#5D5D5C"/>
	<stop  offset="0.4888" style="stop-color:#5A5A59"/>
	<stop  offset="0.7032" style="stop-color:#575756"/>
	<stop  offset="0.8676" style="stop-color:#4D4D4C"/>
	<stop  offset="1" style="stop-color:#3F3F3E"/>
</radialGradient>
<path fill="url(#SVGID_1_)" d="M45,8c-0.9,0-2,0-2.8,0.5c-0.7,0.4-1.2,1.2-1.7,1.9c-2.4,3.9-4.9,8.2-4.5,12.8
	c0.2,1.8,0.8,3.6,0.9,5.4c0.2,2.6-0.6,5.2-1.5,7.7c-2.5,7-5.6,13.8-7.4,21s-2.3,15,0.5,21.9c2.8,7,9,13.4,7.4,20.8
	c-0.3,1.5-0.9,3.3,0.1,4.4c0.6,0.7,1.7,0.9,2.6,1.1c16.3,2.2,33.2-1.2,49.1,3c5.3,1.4,10.4,3.7,15.8,4.5c5.4,0.8,11.5-0.1,15.3-4.1
	c3.6-3.8,4.2-9.5,5-14.6c0.2-1.2,0.4-2.5,1.2-3.5c2.3-2.7,6.6-0.7,10.1-0.5c3.8,0.2,7.4-2.1,9.7-5.2c2.3-3.1,3.4-6.8,4.4-10.5
	c1.6-6,2.8-12.5,0.6-18.3c-2.6-6.9-9.4-11.2-15.7-15C127.5,37,120.8,33,114,28.9c-3.3-2-6.6-3.9-9.5-6.4c-2.1-1.8-4-3.8-6.2-5.5
	c-4.2-3.1-9.3-4.7-14.4-5.7C71.3,8.5,58.1,8.3,45,8z"/>
<radialGradient id="SVGID_2_" cx="88.6522" cy="223.9389" r="118.3066" gradientTransform="matrix(0.9914 0.1309 -0.1309 0.9914 84.809 -171.6318)" gradientUnits="userSpaceOnUse">
	<stop  offset="0" style="stop-color:#999998"/>
	<stop  offset="3.581571e-02" style="stop-color:#8E8E8D"/>
	<stop  offset="0.1294" style="stop-color:#777776"/>
	<stop  offset="0.2302" style="stop-color:#676766"/>
	<stop  offset="0.3424" style="stop-color:#5D5D5C"/>
	<stop  offset="0.4888" style="stop-color:#5A5A59"/>
	<stop  offset="0.7032" style="stop-color:#575756"/>
	<stop  offset="0.8676" style="stop-color:#4D4D4C"/>
	<stop  offset="1" style="stop-color:#3F3F3E"/>
</radialGradient>
<path fill="url(#SVGID_2_)" d="M236.7,100.2c0.2,1.5,0.3,3.2-0.3,4.6c-0.6,1.5-1.8,2.7-3,3.8c-9.5,9-20,16.8-31.3,23.4
	c-4.9,2.9-10.1,5.6-15.7,6.8c-8.8,1.9-17.9,0-26.6-1.9c-15.9-3.4-31.7-6.9-47.6-10.3c-2.7-0.6-5.4-1.2-7.8-2.6
	c-7.2-4.2-8.8-14.3-6.1-22.2c1.1-3.2,2.8-6.2,4.5-9.2c10.2-17.6,22.1-34.5,37.7-47.6c1.8-1.5,3.8-3,6.2-3.1c1.8-0.1,3.5,0.7,5,1.6
	c15.5,8.1,28.2,21.5,45,26.4c6.7,1.9,13.9,2.4,20.4,5C227.6,79.2,235.3,89.2,236.7,100.2z"/>
<radialGradient id="SVGID_3_" cx="2378.771" cy="-92.8355" r="118.3066" gradientTransform="matrix(-0.9825 0.1865 0.1865 0.9825 2478.4355 -233.1467)" gradientUnits="userSpaceOnUse">
	<stop  offset="0" style="stop-color:#999998"/>
	<stop  offset="3.581571e-02" style="stop-color:#8E8E8D"/>
	<stop  offset="0.1294" style="stop-color:#777776"/>
	<stop  offset="0.2302" style="stop-color:#676766"/>
	<stop  offset="0.3424" style="stop-color:#5D5D5C"/>
	<stop  offset="0.4888" style="stop-color:#5A5A59"/>
	<stop  offset="0.7032" style="stop-color:#575756"/>
	<stop  offset="0.8676" style="stop-color:#4D4D4C"/>
	<stop  offset="1" style="stop-color:#3F3F3E"/>
</radialGradient>
<path fill="url(#SVGID_3_)" d="M33.1,162.7c-0.1,1.6-0.1,3.2,0.5,4.6c0.7,1.5,1.9,2.6,3.2,3.7c10,8.4,20.9,15.7,32.6,21.6
	c5.1,2.6,10.4,5,16,5.9c8.9,1.4,17.8-1,26.5-3.4c15.6-4.3,31.3-8.7,46.9-13c2.6-0.7,5.3-1.5,7.6-3c7-4.6,8-14.8,4.9-22.5
	c-1.3-3.2-3.1-6.1-5-8.9c-11.2-17-24-33.2-40.3-45.4c-1.9-1.4-4-2.8-6.3-2.8c-1.8,0-3.4,0.9-4.9,1.8c-15,9-27,23.1-43.5,28.8
	c-6.6,2.3-13.8,3.2-20.1,6.2C41,141.2,33.9,151.6,33.1,162.7z"/>
<use xlink:href="#Herbe_3"  width="35" height="60.4" x="-17.5" y="-30.3" transform="matrix(2.0074 0 0 -2.0074 204.5383 120.3779)" overflow="visible"/>
<use xlink:href="#Herbe_3"  width="35" height="60.4" x="-17.5" y="-30.3" transform="matrix(2.0074 0 0 -2.0074 141.4793 144.9893)" overflow="visible"/>
<use xlink:href="#Herbe_3"  width="35" height="60.4" x="-17.5" y="-30.3" transform="matrix(2.0074 0 0 -2.0074 176.6102 142.9655)" overflow="visible"/>
</svg>
