<?xml version="1.0" encoding="utf-8"?>
<!-- Generator: Adobe Illustrator 18.1.0, SVG Export Plug-In . SVG Version: 6.00 Build 0)  -->
<svg version="1.1" id="Calque_1" xmlns="http://www.w3.org/2000/svg" xmlns:xlink="http://www.w3.org/1999/xlink" x="0px" y="0px"
	 viewBox="0 0 256 256" enable-background="new 0 0 256 256" xml:space="preserve">
<pattern  x="1445" width="352" height="236.8" patternUnits="userSpaceOnUse" id="Brique" viewBox="57.1 -236.8 352 236.8" overflow="visible">
	<g>
		<polygon fill="none" points="57.1,-236.8 409.1,-236.8 409.1,0 57.1,0 		"/>
		<g>
			<g>
				
					<linearGradient id="SVGID_1_" gradientUnits="userSpaceOnUse" x1="407.417" y1="-15392.209" x2="450.7598" y2="-15348.8662" gradientTransform="matrix(1 0 0 -1 -20.2563 -15592.3574)">
					<stop  offset="0" style="stop-color:#A2523D"/>
					<stop  offset="0.5" style="stop-color:#7A1307"/>
					<stop  offset="1" style="stop-color:#510B00"/>
				</linearGradient>
				<polygon fill="url(#SVGID_1_)" points="379.9,-207.4 379.9,-236.3 437.7,-236.3 437.7,-207.4 				"/>
				<path d="M437.2-235.8h-56.8v27.9h56.8V-235.8 M438.2-236.8v29.9h-58.8v-29.9H438.2L438.2-236.8z"/>
			</g>
			<g>
				
					<linearGradient id="SVGID_2_" gradientUnits="userSpaceOnUse" x1="434.6084" y1="-15421.835" x2="477.9512" y2="-15378.4922" gradientTransform="matrix(1 0 0 -1 -20.2563 -15592.3574)">
					<stop  offset="0" style="stop-color:#A2523D"/>
					<stop  offset="0.5" style="stop-color:#7A1307"/>
					<stop  offset="1" style="stop-color:#510B00"/>
				</linearGradient>
				<polygon fill="url(#SVGID_2_)" points="407.1,-177.7 407.1,-206.6 464.9,-206.6 464.9,-177.7 				"/>
				<path d="M464.4-206.1h-56.8v27.9h56.8V-206.1 M465.4-207.1v29.9h-58.8v-29.9H465.4L465.4-207.1z"/>
			</g>
			<g>
				
					<linearGradient id="SVGID_3_" gradientUnits="userSpaceOnUse" x1="407.2947" y1="-15451.5957" x2="450.637" y2="-15408.2529" gradientTransform="matrix(1 0 0 -1 -20.2563 -15592.3574)">
					<stop  offset="0" style="stop-color:#A2523D"/>
					<stop  offset="0.5" style="stop-color:#7A1307"/>
					<stop  offset="1" style="stop-color:#510B00"/>
				</linearGradient>
				<polygon fill="url(#SVGID_3_)" points="379.8,-148 379.8,-176.9 437.6,-176.9 437.6,-148 				"/>
				<path d="M437.1-176.4h-56.8v27.9h56.8V-176.4 M438.1-177.4v29.9h-58.8v-29.9H438.1L438.1-177.4z"/>
			</g>
			<g>
				
					<linearGradient id="SVGID_4_" gradientUnits="userSpaceOnUse" x1="407.417" y1="-15509.9355" x2="450.7598" y2="-15466.5928" gradientTransform="matrix(1 0 0 -1 -20.2563 -15592.3574)">
					<stop  offset="0" style="stop-color:#A2523D"/>
					<stop  offset="0.5" style="stop-color:#7A1307"/>
					<stop  offset="1" style="stop-color:#510B00"/>
				</linearGradient>
				<polygon fill="url(#SVGID_4_)" points="379.9,-89.6 379.9,-118.5 437.7,-118.5 437.7,-89.6 				"/>
				<path d="M437.2-118h-56.8v27.9h56.8V-118 M438.2-119v29.9h-58.8V-119H438.2L438.2-119z"/>
			</g>
			<g>
				
					<linearGradient id="SVGID_5_" gradientUnits="userSpaceOnUse" x1="434.6084" y1="-15539.5625" x2="477.9512" y2="-15496.2197" gradientTransform="matrix(1 0 0 -1 -20.2563 -15592.3574)">
					<stop  offset="0" style="stop-color:#A2523D"/>
					<stop  offset="0.5" style="stop-color:#7A1307"/>
					<stop  offset="1" style="stop-color:#510B00"/>
				</linearGradient>
				<polygon fill="url(#SVGID_5_)" points="407.1,-60 407.1,-88.9 464.9,-88.9 464.9,-60 				"/>
				<path d="M464.4-88.4h-56.8v27.9h56.8V-88.4 M465.4-89.4v29.9h-58.8v-29.9H465.4L465.4-89.4z"/>
			</g>
			<g>
				
					<linearGradient id="SVGID_6_" gradientUnits="userSpaceOnUse" x1="407.2947" y1="-15569.3223" x2="450.637" y2="-15525.9795" gradientTransform="matrix(1 0 0 -1 -20.2563 -15592.3574)">
					<stop  offset="0" style="stop-color:#A2523D"/>
					<stop  offset="0.5" style="stop-color:#7A1307"/>
					<stop  offset="1" style="stop-color:#510B00"/>
				</linearGradient>
				<polygon fill="url(#SVGID_6_)" points="379.8,-30.3 379.8,-59.2 437.6,-59.2 437.6,-30.3 				"/>
				<path d="M437.1-58.7h-56.8v27.9h56.8V-58.7 M438.1-59.7v29.9h-58.8v-29.9H438.1L438.1-59.7z"/>
			</g>
			<g>
				
					<linearGradient id="SVGID_7_" gradientUnits="userSpaceOnUse" x1="379.9805" y1="-15481.3555" x2="423.3232" y2="-15438.0127" gradientTransform="matrix(1 0 0 -1 -20.2563 -15592.3574)">
					<stop  offset="0" style="stop-color:#A2523D"/>
					<stop  offset="0.5" style="stop-color:#7A1307"/>
					<stop  offset="1" style="stop-color:#510B00"/>
				</linearGradient>
				<polygon fill="url(#SVGID_7_)" points="352.5,-118.2 352.5,-147.1 410.3,-147.1 410.3,-118.2 				"/>
				<path d="M409.8-146.6H353v27.9h56.8V-146.6 M410.8-147.6v29.9H352v-29.9H410.8L410.8-147.6z"/>
			</g>
			<g>
				
					<linearGradient id="SVGID_8_" gradientUnits="userSpaceOnUse" x1="379.9805" y1="-15599.082" x2="423.3232" y2="-15555.7393" gradientTransform="matrix(1 0 0 -1 -20.2563 -15592.3574)">
					<stop  offset="0" style="stop-color:#A2523D"/>
					<stop  offset="0.5" style="stop-color:#7A1307"/>
					<stop  offset="1" style="stop-color:#510B00"/>
				</linearGradient>
				<polygon fill="url(#SVGID_8_)" points="352.5,-0.5 352.5,-29.4 410.3,-29.4 410.3,-0.5 				"/>
				<path d="M409.8-28.9H353V-1h56.8V-28.9 M410.8-29.9V0H352v-29.9H410.8L410.8-29.9z"/>
			</g>
		</g>
		<g>
			<g>
				
					<linearGradient id="SVGID_9_" gradientUnits="userSpaceOnUse" x1="55.417" y1="-15392.209" x2="98.7598" y2="-15348.8662" gradientTransform="matrix(1 0 0 -1 -20.2563 -15592.3574)">
					<stop  offset="0" style="stop-color:#A2523D"/>
					<stop  offset="0.5" style="stop-color:#7A1307"/>
					<stop  offset="1" style="stop-color:#510B00"/>
				</linearGradient>
				<polygon fill="url(#SVGID_9_)" points="27.9,-207.4 27.9,-236.3 85.7,-236.3 85.7,-207.4 				"/>
				<path d="M85.2-235.8H28.4v27.9h56.8V-235.8 M86.2-236.8v29.9H27.4v-29.9H86.2L86.2-236.8z"/>
			</g>
			<g>
				
					<linearGradient id="SVGID_10_" gradientUnits="userSpaceOnUse" x1="114.209" y1="-15392.209" x2="157.5518" y2="-15348.8662" gradientTransform="matrix(1 0 0 -1 -20.2563 -15592.3574)">
					<stop  offset="0" style="stop-color:#A2523D"/>
					<stop  offset="0.5" style="stop-color:#7A1307"/>
					<stop  offset="1" style="stop-color:#510B00"/>
				</linearGradient>
				<polygon fill="url(#SVGID_10_)" points="86.7,-207.4 86.7,-236.3 144.5,-236.3 144.5,-207.4 				"/>
				<path d="M144-235.8H87.2v27.9H144V-235.8 M145-236.8v29.9H86.2v-29.9H145L145-236.8z"/>
			</g>
			<g>
				
					<linearGradient id="SVGID_11_" gradientUnits="userSpaceOnUse" x1="173.001" y1="-15392.209" x2="216.3438" y2="-15348.8662" gradientTransform="matrix(1 0 0 -1 -20.2563 -15592.3574)">
					<stop  offset="0" style="stop-color:#A2523D"/>
					<stop  offset="0.5" style="stop-color:#7A1307"/>
					<stop  offset="1" style="stop-color:#510B00"/>
				</linearGradient>
				<polygon fill="url(#SVGID_11_)" points="145.5,-207.4 145.5,-236.3 203.3,-236.3 203.3,-207.4 				"/>
				<path d="M202.8-235.8H146v27.9h56.8V-235.8 M203.8-236.8v29.9H145v-29.9H203.8L203.8-236.8z"/>
			</g>
			<g>
				
					<linearGradient id="SVGID_12_" gradientUnits="userSpaceOnUse" x1="231.7927" y1="-15392.209" x2="275.135" y2="-15348.8662" gradientTransform="matrix(1 0 0 -1 -20.2563 -15592.3574)">
					<stop  offset="0" style="stop-color:#A2523D"/>
					<stop  offset="0.5" style="stop-color:#7A1307"/>
					<stop  offset="1" style="stop-color:#510B00"/>
				</linearGradient>
				<polygon fill="url(#SVGID_12_)" points="204.3,-207.4 204.3,-236.3 262.1,-236.3 262.1,-207.4 				"/>
				<path d="M261.6-235.8h-56.8v27.9h56.8V-235.8 M262.6-236.8v29.9h-58.8v-29.9H262.6L262.6-236.8z"/>
			</g>
			<g>
				
					<linearGradient id="SVGID_13_" gradientUnits="userSpaceOnUse" x1="290.584" y1="-15392.209" x2="333.9268" y2="-15348.8662" gradientTransform="matrix(1 0 0 -1 -20.2563 -15592.3574)">
					<stop  offset="0" style="stop-color:#A2523D"/>
					<stop  offset="0.5" style="stop-color:#7A1307"/>
					<stop  offset="1" style="stop-color:#510B00"/>
				</linearGradient>
				<polygon fill="url(#SVGID_13_)" points="263.1,-207.4 263.1,-236.3 320.9,-236.3 320.9,-207.4 				"/>
				<path d="M320.4-235.8h-56.8v27.9h56.8V-235.8 M321.4-236.8v29.9h-58.8v-29.9H321.4L321.4-236.8z"/>
			</g>
			<g>
				
					<linearGradient id="SVGID_14_" gradientUnits="userSpaceOnUse" x1="349.376" y1="-15392.209" x2="392.7188" y2="-15348.8662" gradientTransform="matrix(1 0 0 -1 -20.2563 -15592.3574)">
					<stop  offset="0" style="stop-color:#A2523D"/>
					<stop  offset="0.5" style="stop-color:#7A1307"/>
					<stop  offset="1" style="stop-color:#510B00"/>
				</linearGradient>
				<polygon fill="url(#SVGID_14_)" points="321.9,-207.4 321.9,-236.3 379.7,-236.3 379.7,-207.4 				"/>
				<path d="M379.2-235.8h-56.8v27.9h56.8V-235.8 M380.2-236.8v29.9h-58.8v-29.9H380.2L380.2-236.8z"/>
			</g>
			<g>
				
					<linearGradient id="SVGID_15_" gradientUnits="userSpaceOnUse" x1="82.6084" y1="-15421.835" x2="125.9512" y2="-15378.4922" gradientTransform="matrix(1 0 0 -1 -20.2563 -15592.3574)">
					<stop  offset="0" style="stop-color:#A2523D"/>
					<stop  offset="0.5" style="stop-color:#7A1307"/>
					<stop  offset="1" style="stop-color:#510B00"/>
				</linearGradient>
				<polygon fill="url(#SVGID_15_)" points="55.1,-177.7 55.1,-206.6 112.9,-206.6 112.9,-177.7 				"/>
				<path d="M112.4-206.1H55.6v27.9h56.8V-206.1 M113.4-207.1v29.9H54.6v-29.9H113.4L113.4-207.1z"/>
			</g>
			<g>
				
					<linearGradient id="SVGID_16_" gradientUnits="userSpaceOnUse" x1="141.4001" y1="-15421.835" x2="184.7424" y2="-15378.4922" gradientTransform="matrix(1 0 0 -1 -20.2563 -15592.3574)">
					<stop  offset="0" style="stop-color:#A2523D"/>
					<stop  offset="0.5" style="stop-color:#7A1307"/>
					<stop  offset="1" style="stop-color:#510B00"/>
				</linearGradient>
				<polygon fill="url(#SVGID_16_)" points="113.9,-177.7 113.9,-206.6 171.7,-206.6 171.7,-177.7 				"/>
				<path d="M171.2-206.1h-56.8v27.9h56.8V-206.1 M172.2-207.1v29.9h-58.8v-29.9H172.2L172.2-207.1z"/>
			</g>
			<g>
				
					<linearGradient id="SVGID_17_" gradientUnits="userSpaceOnUse" x1="200.1914" y1="-15421.835" x2="243.5342" y2="-15378.4922" gradientTransform="matrix(1 0 0 -1 -20.2563 -15592.3574)">
					<stop  offset="0" style="stop-color:#A2523D"/>
					<stop  offset="0.5" style="stop-color:#7A1307"/>
					<stop  offset="1" style="stop-color:#510B00"/>
				</linearGradient>
				<polygon fill="url(#SVGID_17_)" points="172.7,-177.7 172.7,-206.6 230.5,-206.6 230.5,-177.7 				"/>
				<path d="M230-206.1h-56.8v27.9H230V-206.1 M231-207.1v29.9h-58.8v-29.9H231L231-207.1z"/>
			</g>
			<g>
				
					<linearGradient id="SVGID_18_" gradientUnits="userSpaceOnUse" x1="258.9834" y1="-15421.835" x2="302.3262" y2="-15378.4922" gradientTransform="matrix(1 0 0 -1 -20.2563 -15592.3574)">
					<stop  offset="0" style="stop-color:#A2523D"/>
					<stop  offset="0.5" style="stop-color:#7A1307"/>
					<stop  offset="1" style="stop-color:#510B00"/>
				</linearGradient>
				<polygon fill="url(#SVGID_18_)" points="231.5,-177.7 231.5,-206.6 289.3,-206.6 289.3,-177.7 				"/>
				<path d="M288.8-206.1H232v27.9h56.8V-206.1 M289.8-207.1v29.9H231v-29.9H289.8L289.8-207.1z"/>
			</g>
			<g>
				
					<linearGradient id="SVGID_19_" gradientUnits="userSpaceOnUse" x1="317.7754" y1="-15421.835" x2="361.1182" y2="-15378.4922" gradientTransform="matrix(1 0 0 -1 -20.2563 -15592.3574)">
					<stop  offset="0" style="stop-color:#A2523D"/>
					<stop  offset="0.5" style="stop-color:#7A1307"/>
					<stop  offset="1" style="stop-color:#510B00"/>
				</linearGradient>
				<polygon fill="url(#SVGID_19_)" points="290.3,-177.7 290.3,-206.6 348.1,-206.6 348.1,-177.7 				"/>
				<path d="M347.6-206.1h-56.8v27.9h56.8V-206.1 M348.6-207.1v29.9h-58.8v-29.9H348.6L348.6-207.1z"/>
			</g>
			<g>
				
					<linearGradient id="SVGID_20_" gradientUnits="userSpaceOnUse" x1="376.5674" y1="-15421.835" x2="419.9102" y2="-15378.4922" gradientTransform="matrix(1 0 0 -1 -20.2563 -15592.3574)">
					<stop  offset="0" style="stop-color:#A2523D"/>
					<stop  offset="0.5" style="stop-color:#7A1307"/>
					<stop  offset="1" style="stop-color:#510B00"/>
				</linearGradient>
				<polygon fill="url(#SVGID_20_)" points="349.1,-177.7 349.1,-206.6 406.9,-206.6 406.9,-177.7 				"/>
				<path d="M406.4-206.1h-56.8v27.9h56.8V-206.1 M407.4-207.1v29.9h-58.8v-29.9H407.4L407.4-207.1z"/>
			</g>
			<g>
				
					<linearGradient id="SVGID_21_" gradientUnits="userSpaceOnUse" x1="55.2947" y1="-15451.5957" x2="98.637" y2="-15408.2529" gradientTransform="matrix(1 0 0 -1 -20.2563 -15592.3574)">
					<stop  offset="0" style="stop-color:#A2523D"/>
					<stop  offset="0.5" style="stop-color:#7A1307"/>
					<stop  offset="1" style="stop-color:#510B00"/>
				</linearGradient>
				<polygon fill="url(#SVGID_21_)" points="27.8,-148 27.8,-176.9 85.6,-176.9 85.6,-148 				"/>
				<path d="M85.1-176.4H28.3v27.9h56.8V-176.4 M86.1-177.4v29.9H27.3v-29.9H86.1L86.1-177.4z"/>
			</g>
			<g>
				
					<linearGradient id="SVGID_22_" gradientUnits="userSpaceOnUse" x1="114.0859" y1="-15451.5957" x2="157.4287" y2="-15408.2529" gradientTransform="matrix(1 0 0 -1 -20.2563 -15592.3574)">
					<stop  offset="0" style="stop-color:#A2523D"/>
					<stop  offset="0.5" style="stop-color:#7A1307"/>
					<stop  offset="1" style="stop-color:#510B00"/>
				</linearGradient>
				<polygon fill="url(#SVGID_22_)" points="86.6,-148 86.6,-176.9 144.4,-176.9 144.4,-148 				"/>
				<path d="M143.9-176.4H87.1v27.9h56.8V-176.4 M144.9-177.4v29.9H86.1v-29.9H144.9L144.9-177.4z"/>
			</g>
			<g>
				
					<linearGradient id="SVGID_23_" gradientUnits="userSpaceOnUse" x1="172.8779" y1="-15451.5957" x2="216.2207" y2="-15408.2529" gradientTransform="matrix(1 0 0 -1 -20.2563 -15592.3574)">
					<stop  offset="0" style="stop-color:#A2523D"/>
					<stop  offset="0.5" style="stop-color:#7A1307"/>
					<stop  offset="1" style="stop-color:#510B00"/>
				</linearGradient>
				<polygon fill="url(#SVGID_23_)" points="145.4,-148 145.4,-176.9 203.2,-176.9 203.2,-148 				"/>
				<path d="M202.7-176.4h-56.8v27.9h56.8V-176.4 M203.7-177.4v29.9h-58.8v-29.9H203.7L203.7-177.4z"/>
			</g>
			<g>
				
					<linearGradient id="SVGID_24_" gradientUnits="userSpaceOnUse" x1="231.6699" y1="-15451.5957" x2="275.0127" y2="-15408.2529" gradientTransform="matrix(1 0 0 -1 -20.2563 -15592.3574)">
					<stop  offset="0" style="stop-color:#A2523D"/>
					<stop  offset="0.5" style="stop-color:#7A1307"/>
					<stop  offset="1" style="stop-color:#510B00"/>
				</linearGradient>
				<polygon fill="url(#SVGID_24_)" points="204.2,-148 204.2,-176.9 262,-176.9 262,-148 				"/>
				<path d="M261.5-176.4h-56.8v27.9h56.8V-176.4 M262.5-177.4v29.9h-58.8v-29.9H262.5L262.5-177.4z"/>
			</g>
			<g>
				
					<linearGradient id="SVGID_25_" gradientUnits="userSpaceOnUse" x1="290.4619" y1="-15451.5957" x2="333.8047" y2="-15408.2529" gradientTransform="matrix(1 0 0 -1 -20.2563 -15592.3574)">
					<stop  offset="0" style="stop-color:#A2523D"/>
					<stop  offset="0.5" style="stop-color:#7A1307"/>
					<stop  offset="1" style="stop-color:#510B00"/>
				</linearGradient>
				<polygon fill="url(#SVGID_25_)" points="263,-148 263,-176.9 320.8,-176.9 320.8,-148 				"/>
				<path d="M320.3-176.4h-56.8v27.9h56.8V-176.4 M321.3-177.4v29.9h-58.8v-29.9H321.3L321.3-177.4z"/>
			</g>
			<g>
				
					<linearGradient id="SVGID_26_" gradientUnits="userSpaceOnUse" x1="349.2539" y1="-15451.5957" x2="392.5967" y2="-15408.2529" gradientTransform="matrix(1 0 0 -1 -20.2563 -15592.3574)">
					<stop  offset="0" style="stop-color:#A2523D"/>
					<stop  offset="0.5" style="stop-color:#7A1307"/>
					<stop  offset="1" style="stop-color:#510B00"/>
				</linearGradient>
				<polygon fill="url(#SVGID_26_)" points="321.8,-148 321.8,-176.9 379.6,-176.9 379.6,-148 				"/>
				<path d="M379.1-176.4h-56.8v27.9h56.8V-176.4 M380.1-177.4v29.9h-58.8v-29.9H380.1L380.1-177.4z"/>
			</g>
			<g>
				
					<linearGradient id="SVGID_27_" gradientUnits="userSpaceOnUse" x1="86.7725" y1="-15481.3555" x2="130.1152" y2="-15438.0127" gradientTransform="matrix(1 0 0 -1 -20.2563 -15592.3574)">
					<stop  offset="0" style="stop-color:#A2523D"/>
					<stop  offset="0.5" style="stop-color:#7A1307"/>
					<stop  offset="1" style="stop-color:#510B00"/>
				</linearGradient>
				<polygon fill="url(#SVGID_27_)" points="59.3,-118.2 59.3,-147.1 117.1,-147.1 117.1,-118.2 				"/>
				<path d="M116.6-146.6H59.8v27.9h56.8V-146.6 M117.6-147.6v29.9H58.8v-29.9H117.6L117.6-147.6z"/>
			</g>
			<g>
				
					<linearGradient id="SVGID_28_" gradientUnits="userSpaceOnUse" x1="145.5645" y1="-15481.3555" x2="188.9072" y2="-15438.0127" gradientTransform="matrix(1 0 0 -1 -20.2563 -15592.3574)">
					<stop  offset="0" style="stop-color:#A2523D"/>
					<stop  offset="0.5" style="stop-color:#7A1307"/>
					<stop  offset="1" style="stop-color:#510B00"/>
				</linearGradient>
				<polygon fill="url(#SVGID_28_)" points="118.1,-118.2 118.1,-147.1 175.9,-147.1 175.9,-118.2 				"/>
				<path d="M175.4-146.6h-56.8v27.9h56.8V-146.6 M176.4-147.6v29.9h-58.8v-29.9H176.4L176.4-147.6z"/>
			</g>
			<g>
				
					<linearGradient id="SVGID_29_" gradientUnits="userSpaceOnUse" x1="204.3564" y1="-15481.3555" x2="247.6992" y2="-15438.0127" gradientTransform="matrix(1 0 0 -1 -20.2563 -15592.3574)">
					<stop  offset="0" style="stop-color:#A2523D"/>
					<stop  offset="0.5" style="stop-color:#7A1307"/>
					<stop  offset="1" style="stop-color:#510B00"/>
				</linearGradient>
				<polygon fill="url(#SVGID_29_)" points="176.9,-118.2 176.9,-147.1 234.7,-147.1 234.7,-118.2 				"/>
				<path d="M234.2-146.6h-56.8v27.9h56.8V-146.6 M235.2-147.6v29.9h-58.8v-29.9H235.2L235.2-147.6z"/>
			</g>
			<g>
				
					<linearGradient id="SVGID_30_" gradientUnits="userSpaceOnUse" x1="263.1482" y1="-15481.3555" x2="306.4905" y2="-15438.0127" gradientTransform="matrix(1 0 0 -1 -20.2563 -15592.3574)">
					<stop  offset="0" style="stop-color:#A2523D"/>
					<stop  offset="0.5" style="stop-color:#7A1307"/>
					<stop  offset="1" style="stop-color:#510B00"/>
				</linearGradient>
				<polygon fill="url(#SVGID_30_)" points="235.7,-118.2 235.7,-147.1 293.5,-147.1 293.5,-118.2 				"/>
				<path d="M293-146.6h-56.8v27.9H293V-146.6 M294-147.6v29.9h-58.8v-29.9H294L294-147.6z"/>
			</g>
			<g>
				
					<linearGradient id="SVGID_31_" gradientUnits="userSpaceOnUse" x1="321.9395" y1="-15481.3555" x2="365.2822" y2="-15438.0127" gradientTransform="matrix(1 0 0 -1 -20.2563 -15592.3574)">
					<stop  offset="0" style="stop-color:#A2523D"/>
					<stop  offset="0.5" style="stop-color:#7A1307"/>
					<stop  offset="1" style="stop-color:#510B00"/>
				</linearGradient>
				<polygon fill="url(#SVGID_31_)" points="294.5,-118.2 294.5,-147.1 352.3,-147.1 352.3,-118.2 				"/>
				<path d="M351.8-146.6H295v27.9h56.8V-146.6 M352.8-147.6v29.9H294v-29.9H352.8L352.8-147.6z"/>
			</g>
			<g>
				
					<linearGradient id="SVGID_32_" gradientUnits="userSpaceOnUse" x1="380.7314" y1="-15481.3555" x2="424.0742" y2="-15438.0127" gradientTransform="matrix(1 0 0 -1 -20.2563 -15592.3574)">
					<stop  offset="0" style="stop-color:#A2523D"/>
					<stop  offset="0.5" style="stop-color:#7A1307"/>
					<stop  offset="1" style="stop-color:#510B00"/>
				</linearGradient>
				<polygon fill="url(#SVGID_32_)" points="353.3,-118.2 353.3,-147.1 411,-147.1 411,-118.2 				"/>
				<path d="M410.5-146.6h-56.8v27.9h56.8V-146.6 M411.5-147.6v29.9h-58.8v-29.9H411.5L411.5-147.6z"/>
			</g>
			<g>
				
					<linearGradient id="SVGID_33_" gradientUnits="userSpaceOnUse" x1="55.417" y1="-15509.9355" x2="98.7598" y2="-15466.5928" gradientTransform="matrix(1 0 0 -1 -20.2563 -15592.3574)">
					<stop  offset="0" style="stop-color:#A2523D"/>
					<stop  offset="0.5" style="stop-color:#7A1307"/>
					<stop  offset="1" style="stop-color:#510B00"/>
				</linearGradient>
				<polygon fill="url(#SVGID_33_)" points="27.9,-89.6 27.9,-118.5 85.7,-118.5 85.7,-89.6 				"/>
				<path d="M85.2-118H28.4v27.9h56.8V-118 M86.2-119v29.9H27.4V-119H86.2L86.2-119z"/>
			</g>
			<g>
				
					<linearGradient id="SVGID_34_" gradientUnits="userSpaceOnUse" x1="114.209" y1="-15509.9355" x2="157.5518" y2="-15466.5928" gradientTransform="matrix(1 0 0 -1 -20.2563 -15592.3574)">
					<stop  offset="0" style="stop-color:#A2523D"/>
					<stop  offset="0.5" style="stop-color:#7A1307"/>
					<stop  offset="1" style="stop-color:#510B00"/>
				</linearGradient>
				<polygon fill="url(#SVGID_34_)" points="86.7,-89.6 86.7,-118.5 144.5,-118.5 144.5,-89.6 				"/>
				<path d="M144-118H87.2v27.9H144V-118 M145-119v29.9H86.2V-119H145L145-119z"/>
			</g>
			<g>
				
					<linearGradient id="SVGID_35_" gradientUnits="userSpaceOnUse" x1="173.001" y1="-15509.9355" x2="216.3438" y2="-15466.5928" gradientTransform="matrix(1 0 0 -1 -20.2563 -15592.3574)">
					<stop  offset="0" style="stop-color:#A2523D"/>
					<stop  offset="0.5" style="stop-color:#7A1307"/>
					<stop  offset="1" style="stop-color:#510B00"/>
				</linearGradient>
				<polygon fill="url(#SVGID_35_)" points="145.5,-89.6 145.5,-118.5 203.3,-118.5 203.3,-89.6 				"/>
				<path d="M202.8-118H146v27.9h56.8V-118 M203.8-119v29.9H145V-119H203.8L203.8-119z"/>
			</g>
			<g>
				
					<linearGradient id="SVGID_36_" gradientUnits="userSpaceOnUse" x1="231.7927" y1="-15509.9355" x2="275.135" y2="-15466.5928" gradientTransform="matrix(1 0 0 -1 -20.2563 -15592.3574)">
					<stop  offset="0" style="stop-color:#A2523D"/>
					<stop  offset="0.5" style="stop-color:#7A1307"/>
					<stop  offset="1" style="stop-color:#510B00"/>
				</linearGradient>
				<polygon fill="url(#SVGID_36_)" points="204.3,-89.6 204.3,-118.5 262.1,-118.5 262.1,-89.6 				"/>
				<path d="M261.6-118h-56.8v27.9h56.8V-118 M262.6-119v29.9h-58.8V-119H262.6L262.6-119z"/>
			</g>
			<g>
				
					<linearGradient id="SVGID_37_" gradientUnits="userSpaceOnUse" x1="290.584" y1="-15509.9355" x2="333.9268" y2="-15466.5928" gradientTransform="matrix(1 0 0 -1 -20.2563 -15592.3574)">
					<stop  offset="0" style="stop-color:#A2523D"/>
					<stop  offset="0.5" style="stop-color:#7A1307"/>
					<stop  offset="1" style="stop-color:#510B00"/>
				</linearGradient>
				<polygon fill="url(#SVGID_37_)" points="263.1,-89.6 263.1,-118.5 320.9,-118.5 320.9,-89.6 				"/>
				<path d="M320.4-118h-56.8v27.9h56.8V-118 M321.4-119v29.9h-58.8V-119H321.4L321.4-119z"/>
			</g>
			<g>
				
					<linearGradient id="SVGID_38_" gradientUnits="userSpaceOnUse" x1="349.376" y1="-15509.9355" x2="392.7188" y2="-15466.5928" gradientTransform="matrix(1 0 0 -1 -20.2563 -15592.3574)">
					<stop  offset="0" style="stop-color:#A2523D"/>
					<stop  offset="0.5" style="stop-color:#7A1307"/>
					<stop  offset="1" style="stop-color:#510B00"/>
				</linearGradient>
				<polygon fill="url(#SVGID_38_)" points="321.9,-89.6 321.9,-118.5 379.7,-118.5 379.7,-89.6 				"/>
				<path d="M379.2-118h-56.8v27.9h56.8V-118 M380.2-119v29.9h-58.8V-119H380.2L380.2-119z"/>
			</g>
			<g>
				
					<linearGradient id="SVGID_39_" gradientUnits="userSpaceOnUse" x1="82.6084" y1="-15539.5625" x2="125.9512" y2="-15496.2197" gradientTransform="matrix(1 0 0 -1 -20.2563 -15592.3574)">
					<stop  offset="0" style="stop-color:#A2523D"/>
					<stop  offset="0.5" style="stop-color:#7A1307"/>
					<stop  offset="1" style="stop-color:#510B00"/>
				</linearGradient>
				<polygon fill="url(#SVGID_39_)" points="55.1,-60 55.1,-88.9 112.9,-88.9 112.9,-60 				"/>
				<path d="M112.4-88.4H55.6v27.9h56.8V-88.4 M113.4-89.4v29.9H54.6v-29.9H113.4L113.4-89.4z"/>
			</g>
			<g>
				
					<linearGradient id="SVGID_40_" gradientUnits="userSpaceOnUse" x1="141.4001" y1="-15539.5625" x2="184.7424" y2="-15496.2197" gradientTransform="matrix(1 0 0 -1 -20.2563 -15592.3574)">
					<stop  offset="0" style="stop-color:#A2523D"/>
					<stop  offset="0.5" style="stop-color:#7A1307"/>
					<stop  offset="1" style="stop-color:#510B00"/>
				</linearGradient>
				<polygon fill="url(#SVGID_40_)" points="113.9,-60 113.9,-88.9 171.7,-88.9 171.7,-60 				"/>
				<path d="M171.2-88.4h-56.8v27.9h56.8V-88.4 M172.2-89.4v29.9h-58.8v-29.9H172.2L172.2-89.4z"/>
			</g>
			<g>
				
					<linearGradient id="SVGID_41_" gradientUnits="userSpaceOnUse" x1="200.1914" y1="-15539.5625" x2="243.5342" y2="-15496.2197" gradientTransform="matrix(1 0 0 -1 -20.2563 -15592.3574)">
					<stop  offset="0" style="stop-color:#A2523D"/>
					<stop  offset="0.5" style="stop-color:#7A1307"/>
					<stop  offset="1" style="stop-color:#510B00"/>
				</linearGradient>
				<polygon fill="url(#SVGID_41_)" points="172.7,-60 172.7,-88.9 230.5,-88.9 230.5,-60 				"/>
				<path d="M230-88.4h-56.8v27.9H230V-88.4 M231-89.4v29.9h-58.8v-29.9H231L231-89.4z"/>
			</g>
			<g>
				
					<linearGradient id="SVGID_42_" gradientUnits="userSpaceOnUse" x1="258.9834" y1="-15539.5625" x2="302.3262" y2="-15496.2197" gradientTransform="matrix(1 0 0 -1 -20.2563 -15592.3574)">
					<stop  offset="0" style="stop-color:#A2523D"/>
					<stop  offset="0.5" style="stop-color:#7A1307"/>
					<stop  offset="1" style="stop-color:#510B00"/>
				</linearGradient>
				<polygon fill="url(#SVGID_42_)" points="231.5,-60 231.5,-88.9 289.3,-88.9 289.3,-60 				"/>
				<path d="M288.8-88.4H232v27.9h56.8V-88.4 M289.8-89.4v29.9H231v-29.9H289.8L289.8-89.4z"/>
			</g>
			<g>
				
					<linearGradient id="SVGID_43_" gradientUnits="userSpaceOnUse" x1="317.7754" y1="-15539.5625" x2="361.1182" y2="-15496.2197" gradientTransform="matrix(1 0 0 -1 -20.2563 -15592.3574)">
					<stop  offset="0" style="stop-color:#A2523D"/>
					<stop  offset="0.5" style="stop-color:#7A1307"/>
					<stop  offset="1" style="stop-color:#510B00"/>
				</linearGradient>
				<polygon fill="url(#SVGID_43_)" points="290.3,-60 290.3,-88.9 348.1,-88.9 348.1,-60 				"/>
				<path d="M347.6-88.4h-56.8v27.9h56.8V-88.4 M348.6-89.4v29.9h-58.8v-29.9H348.6L348.6-89.4z"/>
			</g>
			<g>
				
					<linearGradient id="SVGID_44_" gradientUnits="userSpaceOnUse" x1="376.5674" y1="-15539.5625" x2="419.9102" y2="-15496.2197" gradientTransform="matrix(1 0 0 -1 -20.2563 -15592.3574)">
					<stop  offset="0" style="stop-color:#A2523D"/>
					<stop  offset="0.5" style="stop-color:#7A1307"/>
					<stop  offset="1" style="stop-color:#510B00"/>
				</linearGradient>
				<polygon fill="url(#SVGID_44_)" points="349.1,-60 349.1,-88.9 406.9,-88.9 406.9,-60 				"/>
				<path d="M406.4-88.4h-56.8v27.9h56.8V-88.4 M407.4-89.4v29.9h-58.8v-29.9H407.4L407.4-89.4z"/>
			</g>
			<g>
				
					<linearGradient id="SVGID_45_" gradientUnits="userSpaceOnUse" x1="55.2947" y1="-15569.3223" x2="98.637" y2="-15525.9795" gradientTransform="matrix(1 0 0 -1 -20.2563 -15592.3574)">
					<stop  offset="0" style="stop-color:#A2523D"/>
					<stop  offset="0.5" style="stop-color:#7A1307"/>
					<stop  offset="1" style="stop-color:#510B00"/>
				</linearGradient>
				<polygon fill="url(#SVGID_45_)" points="27.8,-30.3 27.8,-59.2 85.6,-59.2 85.6,-30.3 				"/>
				<path d="M85.1-58.7H28.3v27.9h56.8V-58.7 M86.1-59.7v29.9H27.3v-29.9H86.1L86.1-59.7z"/>
			</g>
			<g>
				
					<linearGradient id="SVGID_46_" gradientUnits="userSpaceOnUse" x1="114.0859" y1="-15569.3223" x2="157.4287" y2="-15525.9795" gradientTransform="matrix(1 0 0 -1 -20.2563 -15592.3574)">
					<stop  offset="0" style="stop-color:#A2523D"/>
					<stop  offset="0.5" style="stop-color:#7A1307"/>
					<stop  offset="1" style="stop-color:#510B00"/>
				</linearGradient>
				<polygon fill="url(#SVGID_46_)" points="86.6,-30.3 86.6,-59.2 144.4,-59.2 144.4,-30.3 				"/>
				<path d="M143.9-58.7H87.1v27.9h56.8V-58.7 M144.9-59.7v29.9H86.1v-29.9H144.9L144.9-59.7z"/>
			</g>
			<g>
				
					<linearGradient id="SVGID_47_" gradientUnits="userSpaceOnUse" x1="172.8779" y1="-15569.3223" x2="216.2207" y2="-15525.9795" gradientTransform="matrix(1 0 0 -1 -20.2563 -15592.3574)">
					<stop  offset="0" style="stop-color:#A2523D"/>
					<stop  offset="0.5" style="stop-color:#7A1307"/>
					<stop  offset="1" style="stop-color:#510B00"/>
				</linearGradient>
				<polygon fill="url(#SVGID_47_)" points="145.4,-30.3 145.4,-59.2 203.2,-59.2 203.2,-30.3 				"/>
				<path d="M202.7-58.7h-56.8v27.9h56.8V-58.7 M203.7-59.7v29.9h-58.8v-29.9H203.7L203.7-59.7z"/>
			</g>
			<g>
				
					<linearGradient id="SVGID_48_" gradientUnits="userSpaceOnUse" x1="231.6699" y1="-15569.3223" x2="275.0127" y2="-15525.9795" gradientTransform="matrix(1 0 0 -1 -20.2563 -15592.3574)">
					<stop  offset="0" style="stop-color:#A2523D"/>
					<stop  offset="0.5" style="stop-color:#7A1307"/>
					<stop  offset="1" style="stop-color:#510B00"/>
				</linearGradient>
				<polygon fill="url(#SVGID_48_)" points="204.2,-30.3 204.2,-59.2 262,-59.2 262,-30.3 				"/>
				<path d="M261.5-58.7h-56.8v27.9h56.8V-58.7 M262.5-59.7v29.9h-58.8v-29.9H262.5L262.5-59.7z"/>
			</g>
			<g>
				
					<linearGradient id="SVGID_49_" gradientUnits="userSpaceOnUse" x1="290.4619" y1="-15569.3223" x2="333.8047" y2="-15525.9795" gradientTransform="matrix(1 0 0 -1 -20.2563 -15592.3574)">
					<stop  offset="0" style="stop-color:#A2523D"/>
					<stop  offset="0.5" style="stop-color:#7A1307"/>
					<stop  offset="1" style="stop-color:#510B00"/>
				</linearGradient>
				<polygon fill="url(#SVGID_49_)" points="263,-30.3 263,-59.2 320.8,-59.2 320.8,-30.3 				"/>
				<path d="M320.3-58.7h-56.8v27.9h56.8V-58.7 M321.3-59.7v29.9h-58.8v-29.9H321.3L321.3-59.7z"/>
			</g>
			<g>
				
					<linearGradient id="SVGID_50_" gradientUnits="userSpaceOnUse" x1="349.2539" y1="-15569.3223" x2="392.5967" y2="-15525.9795" gradientTransform="matrix(1 0 0 -1 -20.2563 -15592.3574)">
					<stop  offset="0" style="stop-color:#A2523D"/>
					<stop  offset="0.5" style="stop-color:#7A1307"/>
					<stop  offset="1" style="stop-color:#510B00"/>
				</linearGradient>
				<polygon fill="url(#SVGID_50_)" points="321.8,-30.3 321.8,-59.2 379.6,-59.2 379.6,-30.3 				"/>
				<path d="M379.1-58.7h-56.8v27.9h56.8V-58.7 M380.1-59.7v29.9h-58.8v-29.9H380.1L380.1-59.7z"/>
			</g>
			<g>
				
					<linearGradient id="SVGID_51_" gradientUnits="userSpaceOnUse" x1="86.7725" y1="-15599.082" x2="130.1152" y2="-15555.7393" gradientTransform="matrix(1 0 0 -1 -20.2563 -15592.3574)">
					<stop  offset="0" style="stop-color:#A2523D"/>
					<stop  offset="0.5" style="stop-color:#7A1307"/>
					<stop  offset="1" style="stop-color:#510B00"/>
				</linearGradient>
				<polygon fill="url(#SVGID_51_)" points="59.3,-0.5 59.3,-29.4 117.1,-29.4 117.1,-0.5 				"/>
				<path d="M116.6-28.9H59.8V-1h56.8V-28.9 M117.6-29.9V0H58.8v-29.9H117.6L117.6-29.9z"/>
			</g>
			<g>
				
					<linearGradient id="SVGID_52_" gradientUnits="userSpaceOnUse" x1="145.5645" y1="-15599.082" x2="188.9072" y2="-15555.7393" gradientTransform="matrix(1 0 0 -1 -20.2563 -15592.3574)">
					<stop  offset="0" style="stop-color:#A2523D"/>
					<stop  offset="0.5" style="stop-color:#7A1307"/>
					<stop  offset="1" style="stop-color:#510B00"/>
				</linearGradient>
				<polygon fill="url(#SVGID_52_)" points="118.1,-0.5 118.1,-29.4 175.9,-29.4 175.9,-0.5 				"/>
				<path d="M175.4-28.9h-56.8V-1h56.8V-28.9 M176.4-29.9V0h-58.8v-29.9H176.4L176.4-29.9z"/>
			</g>
			<g>
				
					<linearGradient id="SVGID_53_" gradientUnits="userSpaceOnUse" x1="204.3564" y1="-15599.082" x2="247.6992" y2="-15555.7393" gradientTransform="matrix(1 0 0 -1 -20.2563 -15592.3574)">
					<stop  offset="0" style="stop-color:#A2523D"/>
					<stop  offset="0.5" style="stop-color:#7A1307"/>
					<stop  offset="1" style="stop-color:#510B00"/>
				</linearGradient>
				<polygon fill="url(#SVGID_53_)" points="176.9,-0.5 176.9,-29.4 234.7,-29.4 234.7,-0.5 				"/>
				<path d="M234.2-28.9h-56.8V-1h56.8V-28.9 M235.2-29.9V0h-58.8v-29.9H235.2L235.2-29.9z"/>
			</g>
			<g>
				
					<linearGradient id="SVGID_54_" gradientUnits="userSpaceOnUse" x1="263.1482" y1="-15599.082" x2="306.4905" y2="-15555.7393" gradientTransform="matrix(1 0 0 -1 -20.2563 -15592.3574)">
					<stop  offset="0" style="stop-color:#A2523D"/>
					<stop  offset="0.5" style="stop-color:#7A1307"/>
					<stop  offset="1" style="stop-color:#510B00"/>
				</linearGradient>
				<polygon fill="url(#SVGID_54_)" points="235.7,-0.5 235.7,-29.4 293.5,-29.4 293.5,-0.5 				"/>
				<path d="M293-28.9h-56.8V-1H293V-28.9 M294-29.9V0h-58.8v-29.9H294L294-29.9z"/>
			</g>
			<g>
				
					<linearGradient id="SVGID_55_" gradientUnits="userSpaceOnUse" x1="321.9395" y1="-15599.082" x2="365.2822" y2="-15555.7393" gradientTransform="matrix(1 0 0 -1 -20.2563 -15592.3574)">
					<stop  offset="0" style="stop-color:#A2523D"/>
					<stop  offset="0.5" style="stop-color:#7A1307"/>
					<stop  offset="1" style="stop-color:#510B00"/>
				</linearGradient>
				<polygon fill="url(#SVGID_55_)" points="294.5,-0.5 294.5,-29.4 352.3,-29.4 352.3,-0.5 				"/>
				<path d="M351.8-28.9H295V-1h56.8V-28.9 M352.8-29.9V0H294v-29.9H352.8L352.8-29.9z"/>
			</g>
			<g>
				
					<linearGradient id="SVGID_56_" gradientUnits="userSpaceOnUse" x1="380.7314" y1="-15599.082" x2="424.0742" y2="-15555.7393" gradientTransform="matrix(1 0 0 -1 -20.2563 -15592.3574)">
					<stop  offset="0" style="stop-color:#A2523D"/>
					<stop  offset="0.5" style="stop-color:#7A1307"/>
					<stop  offset="1" style="stop-color:#510B00"/>
				</linearGradient>
				<polygon fill="url(#SVGID_56_)" points="353.3,-0.5 353.3,-29.4 411,-29.4 411,-0.5 				"/>
				<path d="M410.5-28.9h-56.8V-1h56.8V-28.9 M411.5-29.9V0h-58.8v-29.9H411.5L411.5-29.9z"/>
			</g>
			<g>
				
					<linearGradient id="SVGID_57_" gradientUnits="userSpaceOnUse" x1="408.168" y1="-15392.209" x2="451.5107" y2="-15348.8662" gradientTransform="matrix(1 0 0 -1 -20.2563 -15592.3574)">
					<stop  offset="0" style="stop-color:#A2523D"/>
					<stop  offset="0.5" style="stop-color:#7A1307"/>
					<stop  offset="1" style="stop-color:#510B00"/>
				</linearGradient>
				<polygon fill="url(#SVGID_57_)" points="380.7,-207.4 380.7,-236.3 438.5,-236.3 438.5,-207.4 				"/>
				<path d="M438-235.8h-56.8v27.9H438V-235.8 M439-236.8v29.9h-58.8v-29.9H439L439-236.8z"/>
			</g>
			<g>
				
					<linearGradient id="SVGID_58_" gradientUnits="userSpaceOnUse" x1="435.3594" y1="-15421.835" x2="478.7021" y2="-15378.4922" gradientTransform="matrix(1 0 0 -1 -20.2563 -15592.3574)">
					<stop  offset="0" style="stop-color:#A2523D"/>
					<stop  offset="0.5" style="stop-color:#7A1307"/>
					<stop  offset="1" style="stop-color:#510B00"/>
				</linearGradient>
				<polygon fill="url(#SVGID_58_)" points="407.9,-177.7 407.9,-206.6 465.7,-206.6 465.7,-177.7 				"/>
				<path d="M465.2-206.1h-56.8v27.9h56.8V-206.1 M466.2-207.1v29.9h-58.8v-29.9H466.2L466.2-207.1z"/>
			</g>
			<g>
				
					<linearGradient id="SVGID_59_" gradientUnits="userSpaceOnUse" x1="408.0457" y1="-15451.5957" x2="451.3879" y2="-15408.2529" gradientTransform="matrix(1 0 0 -1 -20.2563 -15592.3574)">
					<stop  offset="0" style="stop-color:#A2523D"/>
					<stop  offset="0.5" style="stop-color:#7A1307"/>
					<stop  offset="1" style="stop-color:#510B00"/>
				</linearGradient>
				<polygon fill="url(#SVGID_59_)" points="380.6,-148 380.6,-176.9 438.4,-176.9 438.4,-148 				"/>
				<path d="M437.9-176.4h-56.8v27.9h56.8V-176.4 M438.9-177.4v29.9h-58.8v-29.9H438.9L438.9-177.4z"/>
			</g>
			<g>
				
					<linearGradient id="SVGID_60_" gradientUnits="userSpaceOnUse" x1="27.9805" y1="-15481.3555" x2="71.3232" y2="-15438.0127" gradientTransform="matrix(1 0 0 -1 -20.2563 -15592.3574)">
					<stop  offset="0" style="stop-color:#A2523D"/>
					<stop  offset="0.5" style="stop-color:#7A1307"/>
					<stop  offset="1" style="stop-color:#510B00"/>
				</linearGradient>
				<polygon fill="url(#SVGID_60_)" points="0.5,-118.2 0.5,-147.1 58.3,-147.1 58.3,-118.2 				"/>
				<path d="M57.8-146.6H1v27.9h56.8V-146.6 M58.8-147.6v29.9H0v-29.9H58.8L58.8-147.6z"/>
			</g>
			<g>
				
					<linearGradient id="SVGID_61_" gradientUnits="userSpaceOnUse" x1="408.168" y1="-15509.9355" x2="451.5107" y2="-15466.5928" gradientTransform="matrix(1 0 0 -1 -20.2563 -15592.3574)">
					<stop  offset="0" style="stop-color:#A2523D"/>
					<stop  offset="0.5" style="stop-color:#7A1307"/>
					<stop  offset="1" style="stop-color:#510B00"/>
				</linearGradient>
				<polygon fill="url(#SVGID_61_)" points="380.7,-89.6 380.7,-118.5 438.5,-118.5 438.5,-89.6 				"/>
				<path d="M438-118h-56.8v27.9H438V-118 M439-119v29.9h-58.8V-119H439L439-119z"/>
			</g>
			<g>
				
					<linearGradient id="SVGID_62_" gradientUnits="userSpaceOnUse" x1="435.3594" y1="-15539.5625" x2="478.7021" y2="-15496.2197" gradientTransform="matrix(1 0 0 -1 -20.2563 -15592.3574)">
					<stop  offset="0" style="stop-color:#A2523D"/>
					<stop  offset="0.5" style="stop-color:#7A1307"/>
					<stop  offset="1" style="stop-color:#510B00"/>
				</linearGradient>
				<polygon fill="url(#SVGID_62_)" points="407.9,-60 407.9,-88.9 465.7,-88.9 465.7,-60 				"/>
				<path d="M465.2-88.4h-56.8v27.9h56.8V-88.4 M466.2-89.4v29.9h-58.8v-29.9H466.2L466.2-89.4z"/>
			</g>
			<g>
				
					<linearGradient id="SVGID_63_" gradientUnits="userSpaceOnUse" x1="408.0457" y1="-15569.3223" x2="451.3879" y2="-15525.9795" gradientTransform="matrix(1 0 0 -1 -20.2563 -15592.3574)">
					<stop  offset="0" style="stop-color:#A2523D"/>
					<stop  offset="0.5" style="stop-color:#7A1307"/>
					<stop  offset="1" style="stop-color:#510B00"/>
				</linearGradient>
				<polygon fill="url(#SVGID_63_)" points="380.6,-30.3 380.6,-59.2 438.4,-59.2 438.4,-30.3 				"/>
				<path d="M437.9-58.7h-56.8v27.9h56.8V-58.7 M438.9-59.7v29.9h-58.8v-29.9H438.9L438.9-59.7z"/>
			</g>
			<g>
				
					<linearGradient id="SVGID_64_" gradientUnits="userSpaceOnUse" x1="27.9805" y1="-15599.082" x2="71.3232" y2="-15555.7393" gradientTransform="matrix(1 0 0 -1 -20.2563 -15592.3574)">
					<stop  offset="0" style="stop-color:#A2523D"/>
					<stop  offset="0.5" style="stop-color:#7A1307"/>
					<stop  offset="1" style="stop-color:#510B00"/>
				</linearGradient>
				<polygon fill="url(#SVGID_64_)" points="0.5,-0.5 0.5,-29.4 58.3,-29.4 58.3,-0.5 				"/>
				<path d="M57.8-28.9H1V-1h56.8V-28.9 M58.8-29.9V0H0v-29.9H58.8L58.8-29.9z"/>
			</g>
		</g>
		<g>
			<g>
				
					<linearGradient id="SVGID_65_" gradientUnits="userSpaceOnUse" x1="28.7314" y1="-15481.3555" x2="72.0742" y2="-15438.0127" gradientTransform="matrix(1 0 0 -1 -20.2563 -15592.3574)">
					<stop  offset="0" style="stop-color:#A2523D"/>
					<stop  offset="0.5" style="stop-color:#7A1307"/>
					<stop  offset="1" style="stop-color:#510B00"/>
				</linearGradient>
				<polygon fill="url(#SVGID_65_)" points="1.3,-118.2 1.3,-147.1 59,-147.1 59,-118.2 				"/>
				<path d="M58.5-146.6H1.8v27.9h56.8V-146.6 M59.5-147.6v29.9H0.8v-29.9H59.5L59.5-147.6z"/>
			</g>
			<g>
				
					<linearGradient id="SVGID_66_" gradientUnits="userSpaceOnUse" x1="28.7314" y1="-15599.082" x2="72.0742" y2="-15555.7393" gradientTransform="matrix(1 0 0 -1 -20.2563 -15592.3574)">
					<stop  offset="0" style="stop-color:#A2523D"/>
					<stop  offset="0.5" style="stop-color:#7A1307"/>
					<stop  offset="1" style="stop-color:#510B00"/>
				</linearGradient>
				<polygon fill="url(#SVGID_66_)" points="1.3,-0.5 1.3,-29.4 59,-29.4 59,-0.5 				"/>
				<path d="M58.5-28.9H1.8V-1h56.8V-28.9 M59.5-29.9V0H0.8v-29.9H59.5L59.5-29.9z"/>
			</g>
			<g>
				
					<linearGradient id="SVGID_67_" gradientUnits="userSpaceOnUse" x1="56.168" y1="-15392.209" x2="99.5107" y2="-15348.8662" gradientTransform="matrix(1 0 0 -1 -20.2563 -15592.3574)">
					<stop  offset="0" style="stop-color:#A2523D"/>
					<stop  offset="0.5" style="stop-color:#7A1307"/>
					<stop  offset="1" style="stop-color:#510B00"/>
				</linearGradient>
				<polygon fill="url(#SVGID_67_)" points="28.7,-207.4 28.7,-236.3 86.5,-236.3 86.5,-207.4 				"/>
				<path d="M86-235.8H29.2v27.9H86V-235.8 M87-236.8v29.9H28.2v-29.9H87L87-236.8z"/>
			</g>
			<g>
				
					<linearGradient id="SVGID_68_" gradientUnits="userSpaceOnUse" x1="83.3594" y1="-15421.835" x2="126.7021" y2="-15378.4922" gradientTransform="matrix(1 0 0 -1 -20.2563 -15592.3574)">
					<stop  offset="0" style="stop-color:#A2523D"/>
					<stop  offset="0.5" style="stop-color:#7A1307"/>
					<stop  offset="1" style="stop-color:#510B00"/>
				</linearGradient>
				<polygon fill="url(#SVGID_68_)" points="55.9,-177.7 55.9,-206.6 113.7,-206.6 113.7,-177.7 				"/>
				<path d="M113.2-206.1H56.4v27.9h56.8V-206.1 M114.2-207.1v29.9H55.4v-29.9H114.2L114.2-207.1z"/>
			</g>
			<g>
				
					<linearGradient id="SVGID_69_" gradientUnits="userSpaceOnUse" x1="56.0457" y1="-15451.5957" x2="99.3879" y2="-15408.2529" gradientTransform="matrix(1 0 0 -1 -20.2563 -15592.3574)">
					<stop  offset="0" style="stop-color:#A2523D"/>
					<stop  offset="0.5" style="stop-color:#7A1307"/>
					<stop  offset="1" style="stop-color:#510B00"/>
				</linearGradient>
				<polygon fill="url(#SVGID_69_)" points="28.6,-148 28.6,-176.9 86.4,-176.9 86.4,-148 				"/>
				<path d="M85.9-176.4H29.1v27.9h56.8V-176.4 M86.9-177.4v29.9H28.1v-29.9H86.9L86.9-177.4z"/>
			</g>
			<g>
				
					<linearGradient id="SVGID_70_" gradientUnits="userSpaceOnUse" x1="56.168" y1="-15509.9355" x2="99.5107" y2="-15466.5928" gradientTransform="matrix(1 0 0 -1 -20.2563 -15592.3574)">
					<stop  offset="0" style="stop-color:#A2523D"/>
					<stop  offset="0.5" style="stop-color:#7A1307"/>
					<stop  offset="1" style="stop-color:#510B00"/>
				</linearGradient>
				<polygon fill="url(#SVGID_70_)" points="28.7,-89.6 28.7,-118.5 86.5,-118.5 86.5,-89.6 				"/>
				<path d="M86-118H29.2v27.9H86V-118 M87-119v29.9H28.2V-119H87L87-119z"/>
			</g>
			<g>
				
					<linearGradient id="SVGID_71_" gradientUnits="userSpaceOnUse" x1="83.3594" y1="-15539.5625" x2="126.7021" y2="-15496.2197" gradientTransform="matrix(1 0 0 -1 -20.2563 -15592.3574)">
					<stop  offset="0" style="stop-color:#A2523D"/>
					<stop  offset="0.5" style="stop-color:#7A1307"/>
					<stop  offset="1" style="stop-color:#510B00"/>
				</linearGradient>
				<polygon fill="url(#SVGID_71_)" points="55.9,-60 55.9,-88.9 113.7,-88.9 113.7,-60 				"/>
				<path d="M113.2-88.4H56.4v27.9h56.8V-88.4 M114.2-89.4v29.9H55.4v-29.9H114.2L114.2-89.4z"/>
			</g>
			<g>
				
					<linearGradient id="SVGID_72_" gradientUnits="userSpaceOnUse" x1="56.0457" y1="-15569.3223" x2="99.3879" y2="-15525.9795" gradientTransform="matrix(1 0 0 -1 -20.2563 -15592.3574)">
					<stop  offset="0" style="stop-color:#A2523D"/>
					<stop  offset="0.5" style="stop-color:#7A1307"/>
					<stop  offset="1" style="stop-color:#510B00"/>
				</linearGradient>
				<polygon fill="url(#SVGID_72_)" points="28.6,-30.3 28.6,-59.2 86.4,-59.2 86.4,-30.3 				"/>
				<path d="M85.9-58.7H29.1v27.9h56.8V-58.7 M86.9-59.7v29.9H28.1v-29.9H86.9L86.9-59.7z"/>
			</g>
		</g>
	</g>
</pattern>
<rect fill="#A7B867" width="256" height="256"/>
<pattern  id="SVGID_73_" xlink:href="#Brique" patternTransform="matrix(1.0838 0 0 1.0838 225.7713 -2.525)">
</pattern>
<rect fill="url(#SVGID_73_)" width="256" height="256"/>
</svg>
