<?xml version="1.0" encoding="utf-8"?>
<!-- Generator: Adobe Illustrator 18.1.0, SVG Export Plug-In . SVG Version: 6.00 Build 0)  -->
<svg version="1.1" id="Calque_1" xmlns="http://www.w3.org/2000/svg" xmlns:xlink="http://www.w3.org/1999/xlink" x="0px" y="0px"
	 viewBox="0 0 256 256" enable-background="new 0 0 256 256" xml:space="preserve">
<rect x="158.1" y="168.7" fill="#636363" width="28.2" height="70.3"/>
<path fill="#19171A" d="M158.1,222v17.6h-3c-4.5,0-8.2,3.7-8.2,8.2c0,4.5,3.7,8.2,8.2,8.2h3h20h8.2v-34H158.1z"/>
<rect x="116.9" y="168.7" fill="#006633" width="28.2" height="70.3"/>
<path fill="#3B3B3B" d="M117.7,168.7c0,36.6,21.5,53.3,68.6,53.3v-53.3H117.7z"/>
<path fill="#19171A" d="M116.9,222v17.6h-3c-4.5,0-8.2,3.7-8.2,8.2c0,4.5,3.7,8.2,8.2,8.2h3h20h8.2v-34H116.9z"/>
<path fill="#006633" d="M189,138h-75.5c-6.2,0-11.2-5-11.2-11.2v-26c0-6.2,5-11.2,11.2-11.2H189c6.2,0,11.2,5,11.2,11.2v26
	C200.1,132.9,195.1,138,189,138z"/>
<path fill="#006633" d="M186.4,177.4h-67.8c-9,0-16.3-7.4-16.3-16.3v-28.2c0-9,7.4-16.3,16.3-16.3H170c9,0,16.3,7.4,16.3,16.3V177.4
	z"/>
<path fill="#006633" d="M174.7,89.6h-40.9c-5.3,0-9.7-4.4-9.7-9.7V40.2c0-5.3,4.4-9.7,9.7-9.7h40.9c5.3,0,9.7,4.4,9.7,9.7v39.7
	C184.4,85.2,180.1,89.6,174.7,89.6z"/>
<path fill="#006633" d="M177.5,89.6h-55.7c-3.8,0-6.9-3.1-6.9-6.9V63.4h62.6c3.8,0,6.9,3.1,6.9,6.9v12.3
	C184.4,86.5,181.3,89.6,177.5,89.6z"/>
<rect x="117.4" y="168.7" fill="#422918" width="68.9" height="8.5"/>
<polygon fill="#422918" points="117.4,89.6 174.2,168.7 186.4,168.7 130.7,89.6 "/>
<polygon fill="#422918" points="175.7,89.4 188.1,89.6 129.2,168.7 117.5,168.7 "/>
<polygon fill="#C99D66" points="117.7,63.4 124.1,63.4 120.9,55.7 "/>
<polygon fill="#C99D66" points="152.8,63.4 159.2,63.4 156,55.7 "/>
<line fill="none" stroke="#1D1D1B" stroke-width="0.6827" stroke-miterlimit="10" x1="124.1" y1="63.4" x2="167.4" y2="63.4"/>
<line fill="none" stroke="#1D1D1B" stroke-width="2.0482" stroke-linecap="round" stroke-linejoin="round" stroke-miterlimit="10" x1="127.3" y1="43.6" x2="161.3" y2="43.6"/>
<path fill="#006633" d="M198.3,123.1l-0.8-1.2c-2.9-4.2-8.7-5.3-12.9-2.4l-21.1,14.6l11.8,16.1l20.7-14.3
	C200.1,133.1,201.2,127.3,198.3,123.1z"/>
<g>
	
		<rect x="105.8" y="107.4" transform="matrix(-0.5021 -0.8648 0.8648 -0.5021 12.9198 358.3718)" fill="#575756" width="7.7" height="136.2"/>
	<circle fill="#575756" cx="50.7" cy="209.7" r="23.2"/>
</g>
<path fill="#2DAB66" d="M158.6,137.5c-4.2,2.9-5.3,8.7-2.4,12.9l0.8,1.2c2.9,4.2,8.7,5.3,12.9,2.4l5.2-3.6l-11.8-16.1L158.6,137.5z"
	/>
<path fill="#2DAB66" d="M102.3,163.1h15.1v14.1c0,0-5.3,0.4-10.5-4.2C101.8,168.3,102.3,163.1,102.3,163.1z"/>
<path fill="#1D1D1B" d="M149.7,30.5V17.3c0,0-1.5-17.4,9.5-17.4c11,0,17.8,0,17.8,0s10.5,0.5,10.5,10.5s1.2,15.5,12.4,15.5h-18.2
	c0,0-11.6-4.4-11.6-11.6s-7.2-9.4-9.4-9.4s-6.1,6.9-6.1,13.1s-0.5,12.5,6.7,12.5C168.5,30.5,149.7,30.5,149.7,30.5z"/>
<rect x="148" y="16.6" fill="#F8B133" width="8" height="8"/>
<polygon opacity="0.3" fill="#FFFF00" points="45,0 6,0 0,0 0,6 0,45 6,45 6,6 45,6 "/>
<polygon opacity="0.3" fill="#FFFF00" points="0,211 0,250 0,256 6,256 45,256 45,250 6,250 6,211 "/>
<polygon opacity="0.3" fill="#FFFF00" points="211,256 250,256 256,256 256,250 256,211 250,211 250,250 211,250 "/>
<polygon opacity="0.3" fill="#FFFF00" points="256,45 256,6 256,0 250,0 211,0 211,6 250,6 250,45 "/>
</svg>
